<?xml version="1.0" encoding="UTF-8" standalone="no"?>
<!-- Created with Inkscape (http://www.inkscape.org/) -->

<svg
   xmlns:dc="http://purl.org/dc/elements/1.1/"
   xmlns:cc="http://creativecommons.org/ns#"
   xmlns:rdf="http://www.w3.org/1999/02/22-rdf-syntax-ns#"
   xmlns:svg="http://www.w3.org/2000/svg"
   xmlns="http://www.w3.org/2000/svg"
   xmlns:sodipodi="http://sodipodi.sourceforge.net/DTD/sodipodi-0.dtd"
   xmlns:inkscape="http://www.inkscape.org/namespaces/inkscape"
   width="15.636102mm"
   height="24.116665mm"
   viewBox="0 0 55.40351 85.452749"
   id="svg7833"
   version="1.1"
   inkscape:version="0.91 r13725"
   sodipodi:docname="st-andrews-with-name.svg">
  <defs
     id="defs7835">
    <clipPath
       clipPathUnits="userSpaceOnUse"
       id="clipPath1286">
      <path
         d="m 14.646,60.503 96.664,0 0,119.623 -96.664,0 0,-119.623 z"
         id="path1288"
         inkscape:connector-curvature="0" />
    </clipPath>
  </defs>
  <sodipodi:namedview
     id="base"
     pagecolor="#ffffff"
     bordercolor="#666666"
     borderopacity="1.0"
     inkscape:pageopacity="0.0"
     inkscape:pageshadow="2"
     inkscape:zoom="7.9195959"
     inkscape:cx="12.554664"
     inkscape:cy="42.302853"
     inkscape:document-units="px"
     inkscape:current-layer="layer1"
     showgrid="false"
     fit-margin-top="0"
     fit-margin-left="0"
     fit-margin-right="0"
     fit-margin-bottom="0"
     inkscape:window-width="1920"
     inkscape:window-height="1018"
     inkscape:window-x="-8"
     inkscape:window-y="-8"
     inkscape:window-maximized="1" />
  <metadata
     id="metadata7838">
    <rdf:RDF>
      <cc:Work
         rdf:about="">
        <dc:format>image/svg+xml</dc:format>
        <dc:type
           rdf:resource="http://purl.org/dc/dcmitype/StillImage" />
        <dc:title></dc:title>
      </cc:Work>
    </rdf:RDF>
  </metadata>
  <g
     inkscape:label="Layer 1"
     inkscape:groupmode="layer"
     id="layer1"
     transform="translate(-347.29824,-489.63582)">
    <g
       id="g1290"
       transform="matrix(1.25,0,0,-1.25,350.32999,557.40782)">
      <path
         d="m 0,0 c 0,0.269 -0.014,0.457 -0.062,0.535 -0.043,0.07 -0.13,0.1 -0.301,0.109 l -0.344,0.018 0,0.219 C -0.336,0.863 0,0.857 0.352,0.857 c 0.33,0 0.665,0.006 1.038,0.024 L 1.39,0.662 1.046,0.644 C 0.874,0.635 0.788,0.605 0.745,0.535 0.695,0.457 0.682,0.269 0.682,0 l 0,-2.465 c 0,-1.014 0.528,-1.307 1.473,-1.307 0.772,0 1.473,0.293 1.473,1.481 l 0,2.291 c 0,0.269 -0.012,0.457 -0.062,0.535 -0.043,0.07 -0.129,0.092 -0.301,0.109 l -0.315,0.018 0,0.219 c 0.285,-0.01 0.573,-0.024 0.826,-0.024 0.29,0 0.547,0.014 0.862,0.024 l 0,-0.219 L 4.323,0.644 C 4.151,0.627 4.066,0.605 4.023,0.535 3.972,0.457 3.956,0.269 3.956,0 l 0,-2.07 C 3.956,-3.602 3.378,-4.217 1.933,-4.217 0.717,-4.217 0,-3.852 0,-2.541 L 0,0 Z"
         style="fill:#231f20;fill-opacity:1;fill-rule:nonzero;stroke:none"
         id="path1292"
         inkscape:connector-curvature="0" />
    </g>
    <g
       id="g1294"
       transform="matrix(1.25,0,0,-1.25,357.83375,561.58758)">
      <path
         d="m 0,0 c 0,-0.191 0.008,-0.334 0.035,-0.414 0.029,-0.063 0.11,-0.094 0.231,-0.102 l 0.32,-0.019 0,-0.215 c -0.25,0.006 -0.535,0.02 -0.887,0.02 -0.349,0 -0.636,-0.014 -0.886,-0.02 l 0,0.215 0.324,0.019 c 0.119,0.008 0.199,0.039 0.226,0.102 0.028,0.08 0.039,0.223 0.039,0.414 l 0,1.611 c 0,0.229 -0.017,0.385 -0.052,0.444 -0.041,0.058 -0.116,0.078 -0.264,0.078 l -0.266,0 0,0.199 c 0.422,0.043 0.852,0.182 1.116,0.293 L 0,2.598 0,1.99 l 0.016,0 0.527,0.457 c 0.16,0.137 0.295,0.178 0.582,0.178 0.836,0 1.18,-0.465 1.18,-1.244 L 2.305,0 c 0,-0.191 0.008,-0.334 0.035,-0.414 0.031,-0.063 0.109,-0.094 0.23,-0.102 l 0.293,-0.019 0,-0.215 c -0.179,0.006 -0.386,0.02 -0.586,0.02 -0.199,0 -0.408,-0.014 -0.574,-0.02 l 0,2.031 C 1.703,1.873 1.367,2.189 0.879,2.189 0.445,2.189 0,1.811 0,1.518 L 0,0 Z"
         style="fill:#231f20;fill-opacity:1;fill-rule:nonzero;stroke:none"
         id="path1296"
         inkscape:connector-curvature="0" />
    </g>
    <g
       id="g1298"
       transform="matrix(1.25,0,0,-1.25,363.26337,556.85595)">
      <path
         d="m 0,0 c 0,-0.207 -0.195,-0.393 -0.4,-0.393 -0.209,0 -0.393,0.186 -0.393,0.393 0,0.207 0.184,0.402 0.393,0.402 C -0.195,0.402 0,0.207 0,0 m -0.066,-3.785 c 0,-0.192 0.007,-0.334 0.039,-0.414 C 0,-4.262 0.078,-4.293 0.199,-4.301 l 0.33,-0.019 0,-0.215 c -0.258,0.006 -0.545,0.019 -0.894,0.019 -0.35,0 -0.635,-0.013 -0.897,-0.019 l 0,0.215 0.332,0.019 c 0.121,0.008 0.199,0.039 0.227,0.102 0.031,0.08 0.039,0.222 0.039,0.414 l 0,1.611 c 0,0.229 -0.016,0.385 -0.051,0.443 -0.043,0.059 -0.117,0.079 -0.266,0.079 l -0.265,0 0,0.199 c 0.422,0.043 0.851,0.181 1.117,0.293 l 0.063,-0.028 0,-2.597 z"
         style="fill:#231f20;fill-opacity:1;fill-rule:nonzero;stroke:none"
         id="path1300"
         inkscape:connector-curvature="0" />
    </g>
    <g
       id="g1302"
       transform="matrix(1.25,0,0,-1.25,367.09149,561.58758)">
      <path
         d="m 0,0 c -0.121,-0.264 -0.195,-0.535 -0.295,-0.779 l -0.357,0 -1.231,2.883 C -1.926,2.203 -1.969,2.332 -2.105,2.34 l -0.243,0.014 0,0.199 c 0.28,-0.006 0.559,-0.018 0.836,-0.018 0.282,0 0.551,0.012 0.832,0.018 l 0,-0.199 L -1.031,2.34 C -1.219,2.332 -1.266,2.232 -1.148,1.932 l 0.853,-2.061 c 0.151,0.328 0.307,0.666 0.443,1.002 l 0.303,0.76 C 0.645,2.125 0.629,2.332 0.414,2.34 l -0.293,0.014 0,0.199 C 0.344,2.547 0.572,2.535 0.793,2.535 c 0.223,0 0.453,0.012 0.672,0.018 l 0,-0.199 L 1.246,2.34 C 1.066,2.326 0.943,2.074 0.844,1.859 L 0,0 Z"
         style="fill:#231f20;fill-opacity:1;fill-rule:nonzero;stroke:none"
         id="path1304"
         inkscape:connector-curvature="0" />
    </g>
    <g
       id="g1306"
       transform="matrix(1.25,0,0,-1.25,370.05799,560.08357)">
      <path
         d="M 0,0 C 0.588,-0.066 1.189,-0.051 1.705,-0.024 1.705,0.643 1.459,1.187 0.943,1.187 0.396,1.187 -0.035,0.781 0,0 m 2.342,0.113 c 0,-0.099 0,-0.199 -0.016,-0.301 -0.43,-0.07 -0.867,-0.097 -1.295,-0.097 l -1.043,0 c 0,-0.838 0.414,-1.412 1.295,-1.412 0.344,0 0.613,0.172 0.887,0.338 L 2.262,-1.432 2.119,-1.676 c -0.051,-0.084 -0.66,-0.4 -1.144,-0.4 -1.081,0 -1.655,0.685 -1.655,1.654 0,0.693 0.188,1.109 0.518,1.367 0.133,0.106 0.285,0.215 0.441,0.285 0.252,0.114 0.459,0.192 0.703,0.192 0.778,0 1.36,-0.5 1.36,-1.309"
         style="fill:#231f20;fill-opacity:1;fill-rule:nonzero;stroke:none"
         id="path1308"
         inkscape:connector-curvature="0" />
    </g>
    <g
       id="g1310"
       transform="matrix(1.25,0,0,-1.25,374.18875,559.57332)">
      <path
         d="m 0,0 c 0,0.228 -0.014,0.385 -0.049,0.443 -0.043,0.059 -0.115,0.078 -0.265,0.078 l -0.266,0 0,0.2 c 0.426,0.043 0.855,0.181 1.117,0.293 l 0.067,-0.028 0,-0.724 0.011,0 0.387,0.459 c 0.172,0.209 0.416,0.293 0.602,0.293 0.121,0 0.271,-0.036 0.33,-0.079 l -0.065,-0.859 -0.148,0 C 1.641,0.248 1.49,0.408 1.232,0.408 0.916,0.408 0.604,0.076 0.604,-0.381 l 0,-1.23 c 0,-0.192 0.005,-0.334 0.035,-0.414 0.027,-0.063 0.136,-0.094 0.3,-0.102 l 0.372,-0.02 0,-0.214 c -0.372,0.005 -0.657,0.019 -1.008,0.019 -0.352,0 -0.637,-0.014 -0.895,-0.019 l 0,0.214 0.328,0.02 c 0.121,0.008 0.2,0.039 0.231,0.102 C -0.006,-1.945 0,-1.803 0,-1.611 L 0,0 Z"
         style="fill:#231f20;fill-opacity:1;fill-rule:nonzero;stroke:none"
         id="path1312"
         inkscape:connector-curvature="0" />
    </g>
    <g
       id="g1314"
       transform="matrix(1.25,0,0,-1.25,377.42849,561.22132)">
      <path
         d="m 0,0 0,-0.293 c 0,-0.441 0.508,-0.605 0.922,-0.605 0.453,0 0.84,0.261 0.84,0.648 0,0.23 -0.123,0.414 -0.344,0.471 -0.316,0.08 -0.711,0.16 -1.055,0.289 -0.342,0.127 -0.605,0.342 -0.605,0.777 0,0.774 0.672,1.045 1.344,1.045 0.335,0 0.644,-0.078 0.921,-0.178 C 2.002,1.896 1.996,1.635 1.988,1.346 l -0.199,0 0,0.164 c 0,0.373 -0.426,0.588 -0.83,0.588 -0.607,0 -0.703,-0.336 -0.703,-0.58 0,-0.307 0.24,-0.471 0.779,-0.565 0.856,-0.144 1.254,-0.359 1.254,-0.918 0,-0.787 -0.789,-1.201 -1.582,-1.201 -0.344,0 -0.652,0.051 -1,0.174 0.07,0.312 0.078,0.656 0.078,0.992 L 0,0 Z"
         style="fill:#231f20;fill-opacity:1;fill-rule:nonzero;stroke:none"
         id="path1316"
         inkscape:connector-curvature="0" />
    </g>
    <g
       id="g1318"
       transform="matrix(1.25,0,0,-1.25,382.3455,556.85595)">
      <path
         d="m 0,0 c 0,-0.207 -0.191,-0.393 -0.398,-0.393 -0.209,0 -0.395,0.186 -0.395,0.393 0,0.207 0.186,0.402 0.395,0.402 C -0.191,0.402 0,0.207 0,0 m -0.063,-3.785 c 0,-0.192 0.006,-0.334 0.036,-0.414 C 0,-4.262 0.078,-4.293 0.201,-4.301 l 0.33,-0.019 0,-0.215 c -0.258,0.006 -0.543,0.019 -0.894,0.019 -0.352,0 -0.637,-0.013 -0.895,-0.019 l 0,0.215 0.328,0.019 c 0.121,0.008 0.2,0.039 0.229,0.102 0.029,0.08 0.037,0.222 0.037,0.414 l 0,1.611 c 0,0.229 -0.014,0.385 -0.051,0.443 -0.043,0.059 -0.113,0.079 -0.264,0.079 l -0.263,0 0,0.199 c 0.418,0.043 0.851,0.181 1.115,0.293 l 0.064,-0.028 0,-2.597 z"
         style="fill:#231f20;fill-opacity:1;fill-rule:nonzero;stroke:none"
         id="path1320"
         inkscape:connector-curvature="0" />
    </g>
    <g
       id="g1322"
       transform="matrix(1.25,0,0,-1.25,383.38074,559.1167)">
      <path
         d="m 0,0 0,0.148 0.56,0.25 0,0.502 c 0,0.188 -0.005,0.373 -0.029,0.565 0.26,0.08 0.488,0.191 0.61,0.271 L 1.226,1.656 C 1.184,1.346 1.148,0.941 1.148,0.643 l 0,-0.272 0.979,0.043 -0.065,-0.387 -0.914,0 0,-1.875 c 0,-0.33 0.092,-0.494 0.391,-0.494 0.187,0 0.324,0.08 0.424,0.137 L 2.057,-2.328 1.711,-2.707 c -0.063,-0.07 -0.313,-0.084 -0.463,-0.084 -0.381,0 -0.701,0.178 -0.701,0.76 l 0,2.058 L 0,0 Z"
         style="fill:#231f20;fill-opacity:1;fill-rule:nonzero;stroke:none"
         id="path1324"
         inkscape:connector-curvature="0" />
    </g>
    <g
       id="g1326"
       transform="matrix(1.25,0,0,-1.25,389.826,559.1167)">
      <path
         d="m 0,0 c 0.105,0.262 0,0.342 -0.258,0.363 l -0.187,0.014 0,0.199 C -0.217,0.57 0.006,0.559 0.234,0.559 c 0.229,0 0.45,0.011 0.68,0.017 l 0,-0.199 L 0.715,0.363 C 0.539,0.35 0.383,0.127 0.111,-0.502 L -1.34,-3.854 c -0.226,-0.519 -0.488,-0.876 -1.086,-0.876 -0.125,0 -0.281,0.056 -0.359,0.109 l 0.17,0.533 0.095,0 c 0.086,-0.084 0.262,-0.17 0.364,-0.166 0.416,0.031 0.644,0.611 0.781,0.94 l 0.164,0.439 c -0.125,0.334 -0.266,0.684 -0.4,1.014 l -0.78,1.875 C -2.508,0.285 -2.607,0.35 -2.766,0.363 l -0.129,0.014 0,0.199 c 0.28,-0.006 0.555,-0.017 0.832,-0.017 0.282,0 0.551,0.011 0.831,0.017 l 0,-0.199 -0.272,-0.014 C -1.705,0.355 -1.828,0.285 -1.676,-0.104 l 0.457,-1.199 c 0.102,-0.271 0.215,-0.529 0.363,-0.785 L 0,0 Z"
         style="fill:#231f20;fill-opacity:1;fill-rule:nonzero;stroke:none"
         id="path1328"
         inkscape:connector-curvature="0" />
    </g>
    <g
       id="g1330"
       transform="matrix(1.25,0,0,-1.25,393.532,560.2007)">
      <path
         d="m 0,0 c 0,-0.75 0.273,-1.746 1.189,-1.746 0.651,0 0.932,0.652 0.932,1.316 0,0.922 -0.437,1.711 -1.125,1.711 C 0.238,1.281 0,0.666 0,0 m -0.664,-0.307 c 0,1.071 0.672,1.823 1.824,1.823 0.918,0 1.625,-0.715 1.625,-1.631 0,-1.094 -0.781,-1.867 -1.875,-1.867 -0.902,-0.026 -1.574,0.685 -1.574,1.675"
         style="fill:#231f20;fill-opacity:1;fill-rule:nonzero;stroke:none"
         id="path1332"
         inkscape:connector-curvature="0" />
    </g>
    <g
       id="g1334"
       transform="matrix(1.25,0,0,-1.25,400.3485,556.77295)">
      <path
         d="m 0,0 -0.086,-0.045 c -0.129,0.123 -0.293,0.199 -0.473,0.199 -0.445,0 -0.523,-0.205 -0.523,-1.021 l 0,-0.61 0.941,0.028 -0.05,-0.377 -0.891,0 0,-2.026 c 0,-0.191 0.008,-0.334 0.039,-0.414 0.027,-0.062 0.105,-0.093 0.228,-0.101 l 0.331,-0.02 0,-0.215 c -0.262,0.006 -0.545,0.02 -0.897,0.02 -0.35,0 -0.635,-0.014 -0.896,-0.02 l 0,0.215 0.332,0.02 c 0.121,0.008 0.199,0.039 0.228,0.101 0.029,0.08 0.037,0.223 0.037,0.414 l 0,2.026 -0.494,-0.029 0,0.156 0.494,0.222 0,0.303 c 0,0.471 0.092,0.795 0.299,1.031 l 0.416,0.471 c 0.184,0.213 0.443,0.301 0.645,0.301 0.105,0 0.222,-0.039 0.32,-0.078 L 0,0 Z"
         style="fill:#231f20;fill-opacity:1;fill-rule:nonzero;stroke:none"
         id="path1336"
         inkscape:connector-curvature="0" />
    </g>
    <g
       id="g1338"
       transform="matrix(1.25,0,0,-1.25,351.55324,569.14607)">
      <path
         d="m 0,0 -0.053,0.494 c -0.026,0.236 -0.061,0.322 -0.384,0.524 -0.242,0.146 -0.609,0.208 -0.949,0.208 -0.609,0 -1.288,-0.41 -1.288,-1.273 0,-0.588 0.348,-0.957 1.437,-1.08 1.226,-0.127 2.004,-0.432 2.004,-1.426 0,-1.486 -1.335,-2.201 -2.629,-2.201 -0.611,0 -1.203,0.191 -1.49,0.332 0.07,0.453 0.07,0.92 0.062,1.33 l 0.275,0 0.072,-0.582 c 0.044,-0.365 0.732,-0.697 1.421,-0.697 0.782,0 1.556,0.48 1.556,1.34 0,0.828 -0.642,1.062 -1.531,1.166 -1.365,0.156 -1.907,0.588 -1.907,1.488 0,1.348 1.186,1.967 2.227,1.967 0.698,0 1.221,-0.223 1.578,-0.364 C 0.313,0.781 0.278,0.406 0.278,0 L 0,0 Z"
         style="fill:#231f20;fill-opacity:1;fill-rule:nonzero;stroke:none"
         id="path1340"
         inkscape:connector-curvature="0" />
    </g>
    <g
       id="g1342"
       transform="matrix(1.25,0,0,-1.25,352.99,570.7622)">
      <path
         d="m 0,0 0,0.184 0.68,0.308 0,0.608 c 0,0.228 -0.01,0.453 -0.035,0.687 0.308,0.096 0.589,0.236 0.738,0.33 L 1.484,2.023 C 1.436,1.641 1.393,1.152 1.393,0.789 l 0,-0.334 1.189,0.053 -0.076,-0.469 -1.113,0 0,-2.281 c 0,-0.399 0.113,-0.6 0.476,-0.6 0.229,0 0.393,0.096 0.514,0.166 L 2.498,-2.828 2.078,-3.285 C 2,-3.375 1.697,-3.391 1.514,-3.391 c -0.463,0 -0.854,0.219 -0.854,0.922 l 0,2.508 L 0,0 Z"
         style="fill:#231f20;fill-opacity:1;fill-rule:nonzero;stroke:none"
         id="path1344"
         inkscape:connector-curvature="0" />
    </g>
    <g
       id="g1346"
       transform="matrix(1.25,0,0,-1.25,363.98124,571.94407)">
      <path
         d="M 0,0 -1.1,2.596 -2.205,0 0,0 Z m 1.367,-1.191 c 0.076,-0.176 0.17,-0.411 0.276,-0.594 0.095,-0.164 0.193,-0.277 0.345,-0.295 l 0.299,-0.027 0,-0.26 c -0.381,0.006 -0.764,0.027 -1.154,0.027 -0.309,0 -0.692,-0.021 -1.16,-0.027 l 0,0.26 0.41,0.027 c 0.181,0.008 0.355,0.066 0.355,0.172 0,0.123 -0.097,0.351 -0.179,0.56 l -0.403,1 -2.508,0 -0.246,-0.586 c -0.076,-0.181 -0.3,-0.761 -0.3,-0.902 0,-0.183 0.146,-0.219 0.414,-0.244 l 0.322,-0.027 0,-0.26 c -0.416,0.006 -0.748,0.027 -1,0.027 -0.34,0 -0.67,-0.021 -1,-0.027 l 0,0.26 0.322,0.027 c 0.207,0.018 0.373,0.197 0.469,0.428 l 1.551,3.525 c 0.269,0.608 0.564,1.252 0.8,1.881 l 0.276,0 2.111,-4.945 z"
         style="fill:#231f20;fill-opacity:1;fill-rule:nonzero;stroke:none"
         id="path1348"
         inkscape:connector-curvature="0" />
    </g>
    <g
       id="g1350"
       transform="matrix(1.25,0,0,-1.25,368.95199,573.76032)">
      <path
         d="M 0,0 C 0,-0.234 0.008,-0.408 0.043,-0.508 0.078,-0.586 0.174,-0.619 0.32,-0.627 l 0.395,-0.027 0,-0.26 c -0.305,0.006 -0.656,0.027 -1.08,0.027 -0.428,0 -0.776,-0.021 -1.08,-0.027 l 0,0.26 0.39,0.027 c 0.149,0.008 0.244,0.041 0.28,0.119 0.033,0.1 0.044,0.274 0.044,0.508 l 0,1.959 c 0,0.277 -0.019,0.469 -0.062,0.537 -0.053,0.068 -0.141,0.098 -0.322,0.098 l -0.323,0 0,0.242 c 0.516,0.055 1.038,0.221 1.36,0.359 L 0,3.158 l 0,-0.74 0.016,0 0.644,0.558 c 0.193,0.165 0.356,0.219 0.703,0.219 1.02,0 1.438,-0.566 1.438,-1.513 L 2.801,0 c 0,-0.234 0.009,-0.408 0.043,-0.508 0.037,-0.078 0.131,-0.111 0.281,-0.119 l 0.355,-0.027 0,-0.26 c -0.214,0.006 -0.47,0.027 -0.711,0.027 -0.246,0 -0.498,-0.021 -0.697,-0.027 l 0,2.473 C 2.072,2.279 1.66,2.662 1.07,2.662 0.539,2.662 0,2.203 0,1.846 L 0,0 Z"
         style="fill:#231f20;fill-opacity:1;fill-rule:nonzero;stroke:none"
         id="path1352"
         inkscape:connector-curvature="0" />
    </g>
    <g
       id="g1354"
       transform="matrix(1.25,0,0,-1.25,377.89212,571.06507)">
      <path
         d="M 0,0 C 0,0.176 -0.703,0.645 -1.226,0.629 -2.115,0.605 -2.523,0.1 -2.523,-0.965 c 0,-0.81 0.453,-1.687 1.357,-1.687 0.365,0 0.717,0.254 0.949,0.547 C 0.027,-1.801 0,-1.504 0,-1.123 L 0,0 Z m 0,2.352 c 0,0.201 -0.023,0.359 -0.217,0.359 l -0.486,0 0,0.244 c 0.463,0.066 0.926,0.147 1.359,0.32 l 0.077,-0.068 0,-5.363 c 0,-0.235 0.009,-0.408 0.044,-0.508 0.036,-0.078 0.129,-0.111 0.278,-0.119 l 0.402,-0.028 0,-0.259 c -0.359,0.006 -0.578,0.027 -0.795,0.027 -0.224,0 -0.439,-0.021 -0.668,-0.027 l 0.041,0.802 -0.965,-0.81 c -0.078,-0.061 -0.328,-0.07 -0.554,-0.07 -1.219,0 -1.793,0.867 -1.793,2.011 0,0.789 0.379,1.379 0.816,1.61 l 0.766,0.402 c 0.26,0.137 0.496,0.164 0.644,0.164 0.391,0 0.676,-0.113 1.051,-0.279 l 0,1.592 z"
         style="fill:#231f20;fill-opacity:1;fill-rule:nonzero;stroke:none"
         id="path1356"
         inkscape:connector-curvature="0" />
    </g>
    <g
       id="g1358"
       transform="matrix(1.25,0,0,-1.25,381.19549,571.31157)">
      <path
         d="m 0,0 c 0,0.277 -0.018,0.469 -0.064,0.537 -0.055,0.068 -0.137,0.098 -0.321,0.098 l -0.324,0 0,0.242 c 0.516,0.055 1.035,0.221 1.359,0.359 l 0.079,-0.037 0,-0.879 0.019,0 0.469,0.557 c 0.207,0.254 0.5,0.359 0.73,0.359 0.145,0 0.332,-0.043 0.403,-0.097 l -0.078,-1.043 -0.186,0 C 1.992,0.303 1.807,0.494 1.494,0.494 1.111,0.494 0.729,0.096 0.729,-0.463 l 0,-1.496 c 0,-0.234 0.007,-0.408 0.044,-0.508 0.034,-0.078 0.163,-0.111 0.364,-0.119 l 0.451,-0.027 0,-0.26 c -0.451,0.006 -0.803,0.027 -1.227,0.027 -0.425,0 -0.771,-0.021 -1.089,-0.027 l 0,0.26 0.402,0.027 c 0.15,0.008 0.242,0.041 0.279,0.119 C -0.012,-2.367 0,-2.193 0,-1.959 L 0,0 Z"
         style="fill:#231f20;fill-opacity:1;fill-rule:nonzero;stroke:none"
         id="path1360"
         inkscape:connector-curvature="0" />
    </g>
    <g
       id="g1362"
       transform="matrix(1.25,0,0,-1.25,385.48025,571.93432)">
      <path
         d="m 0,0 c 0.715,-0.078 1.445,-0.059 2.074,-0.025 0,0.806 -0.297,1.47 -0.926,1.47 C 0.48,1.445 -0.043,0.953 0,0 m 2.848,0.141 c 0,-0.123 0,-0.246 -0.018,-0.364 C 2.309,-0.312 1.777,-0.348 1.254,-0.348 l -1.272,0 c 0,-1.019 0.506,-1.714 1.577,-1.714 0.418,0 0.75,0.207 1.078,0.41 L 2.748,-1.738 2.578,-2.035 C 2.516,-2.141 1.777,-2.523 1.184,-2.523 c -1.313,0 -2.01,0.834 -2.01,2.009 0,0.846 0.224,1.35 0.627,1.663 0.164,0.132 0.347,0.261 0.539,0.349 0.305,0.139 0.555,0.236 0.855,0.236 0.946,0 1.653,-0.613 1.653,-1.593"
         style="fill:#231f20;fill-opacity:1;fill-rule:nonzero;stroke:none"
         id="path1364"
         inkscape:connector-curvature="0" />
    </g>
    <g
       id="g1366"
       transform="matrix(1.25,0,0,-1.25,393.869,569.7662)">
      <path
         d="M 0,0 0.199,0 C 0.281,-0.254 0.363,-0.48 0.455,-0.707 L 1.451,-3.23 c 0.141,0.357 0.287,0.714 0.422,1.08 l 0.434,1.216 c 0.14,0.385 0.044,0.567 -0.28,0.586 l -0.297,0.02 0,0.24 c 0.289,-0.01 0.567,-0.025 0.856,-0.025 0.285,0 0.564,0.015 0.851,0.025 l 0,-0.24 -0.228,-0.02 C 3.012,-0.367 2.871,-0.602 2.656,-1.109 L 2.062,-2.465 C 1.828,-3.006 1.662,-3.59 1.463,-4.143 l -0.399,0 -1.185,2.975 C -0.272,-1.488 -0.436,-1.82 -0.57,-2.143 l -0.856,-2 -0.41,0 -0.891,2.924 c -0.226,0.727 -0.357,0.852 -0.574,0.871 l -0.246,0.02 0,0.24 c 0.352,-0.01 0.691,-0.025 1.039,-0.025 0.35,0 0.69,0.015 1.035,0.025 l 0,-0.24 -0.345,-0.02 c -0.299,-0.019 -0.393,-0.115 -0.299,-0.429 l 0.734,-2.401 c 0.113,0.233 0.207,0.469 0.313,0.705 L 0,0 Z"
         style="fill:#231f20;fill-opacity:1;fill-rule:nonzero;stroke:none"
         id="path1368"
         inkscape:connector-curvature="0" />
    </g>
    <g
       id="g1370"
       transform="matrix(1.25,0,0,-1.25,399.2205,573.31607)">
      <path
         d="m 0,0 0,-0.355 c 0,-0.538 0.621,-0.741 1.125,-0.741 0.547,0 1.016,0.319 1.016,0.791 0,0.278 -0.149,0.504 -0.418,0.575 C 1.342,0.367 0.861,0.461 0.445,0.617 0.027,0.775 -0.293,1.039 -0.293,1.566 -0.293,2.512 0.521,2.84 1.342,2.84 1.75,2.84 2.125,2.742 2.465,2.621 2.437,2.307 2.426,1.986 2.42,1.637 l -0.244,0 0,0.199 c 0,0.455 -0.512,0.715 -1.012,0.715 -0.734,0 -0.852,-0.41 -0.852,-0.703 0,-0.377 0.286,-0.578 0.95,-0.692 1.039,-0.172 1.523,-0.433 1.523,-1.109 0,-0.963 -0.957,-1.465 -1.924,-1.465 -0.416,0 -0.787,0.063 -1.216,0.209 0.085,0.385 0.097,0.803 0.097,1.209 L 0,0 Z"
         style="fill:#231f20;fill-opacity:1;fill-rule:nonzero;stroke:none"
         id="path1372"
         inkscape:connector-curvature="0" />
    </g>
    <g
       id="g1374"
       transform="matrix(1.25,0,0,-1.25,351.49824,491.21745)">
      <path
         d="m 0,0 c -0.043,-1.162 -0.262,-7.293 -0.262,-7.293 -0.168,-4.273 -0.312,-8.023 -0.312,-11.363 0,-14.698 2.84,-21.393 19.191,-29.322 16.35,7.929 19.19,14.624 19.19,29.312 0,3.344 -0.145,7.1 -0.313,11.379 0,0 -0.215,6.125 -0.254,7.287 L 0,0 Z"
         style="fill:#ffffff;fill-opacity:1;fill-rule:nonzero;stroke:none"
         id="path1376"
         inkscape:connector-curvature="0" />
    </g>
    <g
       id="g1378"
       transform="matrix(1.25,0,0,-1.25,377.31624,503.90557)">
      <path
         d="m 0,0 -0.023,0.088 c 1.089,0.715 1.8,1.881 1.8,3.013 0,1.911 -1.742,3.469 -3.865,3.469 -2.113,0 -3.883,-1.558 -3.883,-3.469 0,-1.132 0.707,-2.298 1.801,-3.013 L -4.193,0 c -1.602,0.734 -2.762,2.242 -2.762,3.814 0,2.256 2.25,4.129 4.875,4.129 2.631,0 4.838,-1.873 4.838,-4.129 C 2.758,2.242 1.605,0.734 0,0 m -0.859,-0.188 -0.036,0.086 c 0,0 0.258,0.112 0.606,0.323 0.676,0.416 1.234,1.269 1.234,2.086 0,1.439 -1.34,2.605 -3.029,2.605 -1.676,0 -3.059,-1.166 -3.059,-2.605 0,-0.817 0.567,-1.67 1.235,-2.086 0.351,-0.211 0.613,-0.323 0.613,-0.323 L -3.33,-0.188 c 0,0 -0.289,0.11 -0.641,0.329 -1.179,0.716 -1.804,1.896 -1.804,2.96 0,1.807 1.679,3.278 3.687,3.278 2.018,0 3.678,-1.471 3.678,-3.278 0,-1.064 -0.637,-2.244 -1.809,-2.96 -0.351,-0.219 -0.64,-0.329 -0.64,-0.329 m 16.293,9.077 -34.897,0 -0.367,-9.733 35.662,0 -0.398,9.733 z"
         style="fill:#ee2722;fill-opacity:1;fill-rule:nonzero;stroke:none"
         id="path1380"
         inkscape:connector-curvature="0" />
    </g>
    <g
       id="g1382"
       transform="matrix(1.25,0,0,-1.25,380.36299,506.26157)">
      <path
         d="m 0,0 0,-5.461 c -0.059,-0.039 -0.469,-0.357 -1.105,-0.367 -0.68,-0.006 -1.493,0.312 -2.227,0.312 -0.463,0 -0.814,-0.189 -1.107,-0.507 l -0.161,0 c 0,0 -0.437,0.507 -1.121,0.507 -0.711,0 -1.55,-0.328 -2.226,-0.328 -0.672,0 -1.039,0.354 -1.094,0.393 l 0,5.451 C -9.182,-0.275 -9.49,-0.564 -9.732,-0.57 l 0,-5.395 c 0.277,-0.217 0.617,-0.303 0.984,-0.312 0.895,-0.03 1.957,0.379 2.887,0.379 0.508,0 0.98,-0.135 1.34,-0.528 0.371,0.393 0.816,0.528 1.326,0.528 0.926,0 2.004,-0.409 2.894,-0.379 0.364,0.009 0.699,0.095 0.981,0.312 l 0,5.395 C 0.43,-0.594 0.098,-0.287 0,0"
         style="fill:#ee2722;fill-opacity:1;fill-rule:nonzero;stroke:none"
         id="path1384"
         inkscape:connector-curvature="0" />
    </g>
    <g
       id="g1386"
       transform="matrix(1.25,0,0,-1.25,374.223,524.34257)">
      <path
         d="M 0,0 C -0.113,0.16 -0.141,0.422 -0.031,0.59 0.238,0.422 0.48,0.392 0.789,0.338 0.527,0.258 0.219,0.16 0,0 m 13.935,-7.959 c -0.101,0.348 -0.417,0.637 -0.722,0.66 0.058,-0.064 0.113,-0.113 0.168,-0.172 0.32,-0.371 0.129,-1.201 -0.203,-1.4 0.14,0.498 -0.243,0.89 -0.743,0.754 0.188,-0.108 0.305,-0.42 0.219,-0.719 -0.078,-0.285 -0.402,-0.545 -0.715,-0.486 -0.429,0.08 -0.191,0.64 -0.203,0.998 -0.015,0.508 -0.34,0.746 -0.578,0.863 -0.027,0.014 -0.004,0.049 -0.004,0.049 0.168,-0.045 0.332,-0.117 0.563,-0.112 0.312,0 0.562,0.174 0.664,0.313 0.125,0.16 0.176,0.43 0.105,0.623 -0.054,-0.084 -0.129,-0.187 -0.203,-0.256 -0.183,-0.17 -0.543,-0.197 -0.801,-0.068 -0.265,0.127 -0.523,0.4 -0.73,0.664 -0.688,0.939 -1.524,1.894 -2.387,2.461 C 7.838,-3.44 7.131,-3.154 6.455,-3.135 6.049,-3.125 5.639,-3.211 5.291,-3.434 4.822,-3.731 4.537,-4.248 4.478,-4.742 4.404,-5.32 4.611,-5.895 4.963,-6.344 5.432,-6.945 6.088,-7.383 6.721,-7.785 7.185,-8.084 7.643,-8.402 8.076,-8.74 8.412,-9.01 8.701,-9.318 8.795,-9.758 8.889,-10.164 8.713,-10.447 8.549,-10.582 8.26,-10.824 7.486,-10.801 7.205,-10.563 7.021,-9.164 6.06,-8.553 4.81,-8.254 4.217,-8.108 3.584,-7.959 3.088,-7.688 2.639,-7.441 2.236,-7.193 2.033,-6.608 1.959,-6.627 1.744,-6.588 1.588,-6.522 1.219,-6.385 1.094,-6.135 1.027,-5.916 1.242,-6.135 1.432,-6.27 1.99,-6.295 2.322,-6.309 2.771,-6.145 2.943,-5.859 2.6,-5.906 2.322,-5.885 2.127,-5.768 1.935,-5.649 1.744,-5.383 1.783,-5.09 c 0.332,-0.35 0.953,-0.471 1.508,-0.199 0.078,0.037 0.332,0.228 0.348,0.314 -0.301,-0.031 -0.571,0.024 -0.746,0.172 -0.184,0.147 -0.297,0.369 -0.293,0.684 0.191,-0.196 0.539,-0.305 0.871,-0.289 0.336,0.013 0.652,0.15 0.765,0.424 -0.25,-0.045 -0.5,0.009 -0.703,0.132 -0.187,0.121 -0.328,0.309 -0.34,0.543 -0.328,0.026 -0.586,0.168 -0.746,0.358 -0.187,-0.27 -0.25,-0.891 -0.215,-1.313 -0.527,0.02 -0.974,0.383 -1.052,0.881 -0.231,-0.258 -0.266,-0.9 -0.149,-1.26 -0.629,0.041 -1.012,0.379 -1.16,0.903 -0.09,-0.19 -0.137,-0.446 -0.133,-0.723 0.004,-0.074 0.02,-0.23 0.039,-0.344 0,0 -0.156,0.01 -0.375,0.164 -0.281,0.186 -0.527,0.655 -0.508,0.881 0.161,-0.248 0.368,-0.463 0.606,-0.617 -0.024,0.572 0.238,1.016 0.547,1.238 0.008,-0.621 0.207,-0.978 0.699,-1.107 -0.082,0.361 0.023,0.66 0.109,0.885 0.086,0.213 0.313,0.502 0.444,0.588 0.004,-0.504 0.238,-1.006 0.668,-1.122 -0.016,0.395 0.062,0.842 0.207,1.122 0.07,0.128 0.156,0.271 0.269,0.332 0.121,-0.403 0.629,-0.602 1.094,-0.618 1.254,-0.039 1.316,0.993 1.316,0.993 -0.168,-0.081 -0.394,-0.221 -0.812,-0.221 -0.512,0 -0.656,0.408 -0.656,0.408 0.297,-0.119 0.894,0.035 1.172,0.252 0.175,0.137 0.394,0.43 0.414,0.688 0.019,0.248 -0.039,0.478 -0.207,0.595 -0.207,-0.539 -1.395,-0.828 -1.805,-0.281 0.449,-0.037 0.867,0.164 1.016,0.447 0.046,0.071 0.089,0.293 0.054,0.393 0,0 -0.328,-0.213 -0.758,-0.231 -0.461,-0.019 -0.714,0.172 -0.714,0.172 0.308,0.02 0.902,0.334 0.859,0.715 0,0 -0.191,-0.068 -0.324,-0.078 C 2.752,0.756 2.322,0.797 2.096,0.965 2.107,1.019 2.232,1.9 2.131,2.01 1.74,1.83 1.377,1.545 1.16,1.174 0.93,1.207 0.652,1.242 0.332,1.236 0.012,1.232 -0.348,1.174 -0.52,1.084 -0.598,1.045 -0.738,0.945 -0.816,0.846 -0.902,0.74 -0.93,0.609 -1.024,0.551 -1.25,0.422 -1.617,0.373 -1.914,0.35 -2.141,0.322 -2.441,0.359 -2.512,0.18 c -0.074,-0.19 0.074,-0.295 0.145,-0.385 0.047,-0.069 0.097,-0.174 0.133,-0.262 0.031,-0.086 0.062,-0.226 0.109,-0.295 0.293,-0.469 0.586,-0.26 0.91,-0.16 0.359,0.127 0.844,0.248 1.27,0.248 0.257,0 0.531,-0.033 0.742,-0.172 C 0.988,-0.965 1.09,-1.234 1.078,-1.463 1.074,-1.672 0.984,-1.881 0.82,-2.016 0.742,-2.096 0.41,-2.285 -0.031,-2.285 c -0.539,0 -1.078,0.25 -1.551,0.26 -0.141,0.005 -0.285,-0.04 -0.332,-0.09 -0.152,-0.151 -0.152,-0.348 -0.016,-0.528 0.473,0.01 0.457,-0.527 0.387,-0.775 -0.231,-0.602 -0.703,-0.627 -0.926,-0.607 -0.277,0.029 -0.558,0.148 -0.683,0.294 -0.231,-0.683 0.234,-1.234 0.855,-1.263 -0.43,-0.356 -1.281,-0.076 -1.363,0.388 -0.063,-0.066 -0.114,-0.216 -0.121,-0.349 -0.055,-0.836 0.621,-1.174 1.468,-1.141 -0.496,-0.199 -1.125,-0.097 -1.703,0.071 -0.523,0.15 -0.812,0.289 -1.175,0.468 -0.446,0.213 -0.911,0.596 -1.145,1.004 -0.074,0.139 -0.156,0.387 -0.148,0.569 0.035,0.636 0.769,0.72 0.671,1.451 -0.511,0.156 -1.023,-0.094 -1.175,-0.588 -0.047,-0.133 -0.059,-0.281 -0.039,-0.457 -0.188,0.16 -0.379,0.373 -0.571,0.545 -0.164,0.146 -0.336,0.238 -0.527,0.22 -0.016,0 -0.047,-0.152 -0.18,-0.318 -0.047,-0.053 -0.254,-0.232 -0.254,-0.232 0.012,-0.116 0.118,-0.245 0.16,-0.278 0.161,-0.146 0.473,-0.226 0.606,-0.435 0.039,-0.063 0.055,-0.143 0.047,-0.239 -0.141,-0.043 -0.27,-0.039 -0.383,-0.013 -0.395,0.094 -0.687,0.441 -1.141,0.467 -0.187,0.013 -0.379,-0.02 -0.464,-0.149 0.121,-0.16 0.097,-0.484 -0.016,-0.676 0.07,-0.16 0.223,-0.228 0.391,-0.248 0.261,-0.031 0.57,0.02 0.816,-0.017 0.133,-0.01 0.246,-0.049 0.324,-0.133 -0.152,-0.106 -0.265,-0.178 -0.433,-0.219 -0.36,-0.08 -0.789,0.188 -1.098,0.02 0,0 0.07,-0.147 0.019,-0.315 -0.039,-0.154 -0.121,-0.297 -0.121,-0.297 0.161,-0.144 0.328,-0.201 0.493,-0.205 0.328,-0.006 0.671,0.194 0.996,0.313 0.156,0.056 0.3,0.099 0.445,0.099 -0.262,-0.341 -0.68,-0.67 -1.168,-0.716 -0.063,-0.004 -0.152,-0.004 -0.152,-0.004 0.004,-0.055 0.125,-0.114 0.164,-0.135 0.109,-0.055 0.289,-0.104 0.437,-0.109 0.656,-0.03 1.188,0.195 1.641,0.455 -0.203,-0.411 -0.57,-0.643 -1.035,-0.784 0.047,-0.064 0.16,-0.08 0.25,-0.093 1.004,-0.166 1.91,0.511 1.91,0.511 -0.024,-0.189 -0.168,-0.472 -0.488,-0.671 -0.168,-0.098 -0.348,-0.125 -0.348,-0.125 0.137,-0.143 0.508,-0.161 0.758,-0.131 0.289,0.019 0.633,0.14 0.918,0.197 0.457,0.082 0.738,0.062 1.015,0.125 -0.308,-0.125 -0.633,-0.244 -0.961,-0.375 -0.402,-0.145 -0.769,-0.338 -1.121,-0.525 -0.375,-0.206 -0.691,-0.469 -1.043,-0.643 -0.371,-0.189 -0.808,-0.105 -0.98,0.193 -0.082,0.151 -0.078,0.309 -0.113,0.469 -0.086,0.371 -0.364,0.686 -0.786,0.68 -0.035,-0.322 -0.308,-0.531 -0.441,-0.627 0.055,-0.586 0.812,-0.576 0.898,-1.178 -0.066,-0.039 -0.211,-0.059 -0.355,-0.016 -0.309,0.094 -0.516,0.215 -0.805,0.219 -0.168,0.006 -0.324,-0.029 -0.468,-0.125 0.058,-0.058 0.101,-0.127 0.128,-0.226 0.047,-0.186 -0.011,-0.393 -0.097,-0.524 0.113,-0.119 0.258,-0.152 0.418,-0.152 0.277,0 0.593,0.101 0.836,0.119 0.144,0.01 0.32,0.014 0.453,-0.057 -0.153,-0.377 -0.707,-0.347 -1.129,-0.453 -0.199,-0.054 -0.363,-0.138 -0.449,-0.308 0.289,-0.094 0.488,-0.305 0.468,-0.702 0.145,-0.003 0.266,0.026 0.383,0.069 0.36,0.16 0.574,0.555 0.934,0.68 -0.012,-0.401 -0.258,-0.627 -0.317,-0.977 -0.019,-0.109 -0.015,-0.223 0.012,-0.363 0,0 0.18,0.082 0.371,0.082 0.168,-0.01 0.258,-0.063 0.356,-0.117 0.097,0.089 0.156,0.218 0.191,0.357 0.059,0.266 0.039,0.578 0.051,0.838 0.027,0.142 0.019,0.205 0.129,0.224 0.496,0 1.027,0.274 1.222,0.487 -0.082,-0.315 -0.187,-0.492 -0.367,-0.696 -0.058,-0.066 -0.195,-0.201 -0.25,-0.246 0.305,-0.043 0.617,0.045 0.864,0.205 0.511,0.332 0.949,0.766 1.168,1.309 0.058,-0.234 0.042,-0.514 -0.04,-0.74 -0.054,-0.166 -0.16,-0.328 -0.23,-0.41 0.082,-0.02 0.25,0.013 0.348,0.056 0.375,0.164 0.648,0.487 0.847,0.899 0.102,0.211 0.203,0.488 0.242,0.748 0.215,-0.225 0.262,-0.604 0.102,-1.02 -0.035,-0.092 -0.098,-0.179 -0.113,-0.205 0.25,0.026 0.445,0.201 0.617,0.363 0.293,0.284 0.551,0.842 0.488,1.338 0.281,-0.242 0.356,-0.906 0.184,-1.273 0.246,0.07 0.457,0.23 0.629,0.414 0.203,0.213 0.324,0.383 0.445,0.781 0.117,0.381 0.039,0.651 0.039,0.651 0.055,-0.045 0.129,-0.178 0.156,-0.299 0.114,-0.487 -0.027,-1.045 -0.433,-1.432 -0.071,-0.066 -0.203,-0.17 -0.223,-0.18 0.274,-0.369 0.758,-0.519 1.297,-0.543 0.906,-0.048 1.441,0.333 2.287,0.424 -0.348,-0.16 -0.67,-0.367 -0.881,-0.463 -0.492,-0.228 -0.933,-0.377 -1.324,-0.363 -0.223,0.01 -0.484,0.006 -0.719,0.125 -0.168,-0.205 -0.199,-0.447 -0.168,-0.791 0.051,-0.459 0.305,-0.756 0.192,-1.228 -0.235,-0.883 -1.797,-0.746 -2.379,-0.319 -0.473,0.352 -0.43,1.178 -0.856,1.535 -0.129,0.106 -0.289,0.166 -0.519,0.166 -0.082,-0.267 -0.266,-0.433 -0.481,-0.576 0.032,-0.17 0.114,-0.289 0.215,-0.39 0.168,-0.184 0.418,-0.303 0.563,-0.522 0.058,-0.084 0.109,-0.189 0.121,-0.328 -0.156,-0.004 -0.293,0.029 -0.41,0.09 -0.321,0.154 -0.559,0.467 -0.922,0.547 -0.129,0.029 -0.274,0.025 -0.453,-0.02 0.062,-0.183 -0.043,-0.482 -0.215,-0.617 0.133,-0.357 0.496,-0.561 0.969,-0.588 0.261,-0.014 0.562,0.01 0.718,-0.183 -0.367,-0.393 -0.945,-0.006 -1.453,-0.006 -0.137,0 -0.265,-0.03 -0.39,-0.108 0.019,-0.031 0.082,-0.154 0.093,-0.273 0.016,-0.176 -0.105,-0.418 -0.105,-0.418 0.015,-0.147 0.308,-0.219 0.469,-0.238 0.113,-0.016 0.242,-0.006 0.347,0.013 0.375,0.059 0.781,0.328 1.164,0.295 0.055,-0.006 0.157,-0.031 0.176,-0.08 -0.121,-0.305 -0.426,-0.344 -0.609,-0.537 -0.063,-0.07 -0.118,-0.166 -0.137,-0.295 0.312,0.078 0.422,-0.049 0.574,-0.244 0.145,-0.016 0.27,0.025 0.367,0.101 0.196,0.149 0.332,0.461 0.457,0.61 0.047,0.06 0.094,0.15 0.204,0.131 0.058,-0.01 0.128,-0.141 0.203,-0.231 0.265,-0.338 0.73,-0.607 1.308,-0.537 0.168,0.02 0.34,0.096 0.453,0.225 -0.371,0.06 -0.636,0.318 -0.757,0.656 0.324,-0.234 0.89,-0.436 1.359,-0.357 0.059,0.009 0.203,0.06 0.226,0.113 -0.363,0.096 -0.656,0.459 -0.519,0.906 0.164,-0.279 0.504,-0.531 0.91,-0.566 0.125,-0.012 0.277,-0.016 0.391,0.068 -0.063,0.061 -0.141,0.129 -0.184,0.225 -0.047,0.099 -0.078,0.242 -0.062,0.369 0.047,0.328 0.504,0.418 0.793,0.451 0.382,0.045 0.795,-0.043 1.134,0.09 0.246,0.099 0.465,0.283 0.442,0.547 -0.125,-0.094 -0.297,-0.172 -0.512,-0.153 -0.332,0.03 -0.435,0.309 -0.435,0.506 0,0.393 0.236,0.588 0.709,0.621 0.21,0.01 0.535,-0.043 0.726,-0.123 -0.008,0.004 0.309,-0.115 0.309,-0.105 -0.133,0.267 0.015,0.736 0.105,0.951 0.164,0.373 0.344,0.58 0.438,0.918 0.023,-0.068 0.031,-0.141 0.023,-0.221 -0.035,-0.385 -0.195,-0.613 -0.234,-1.047 -0.028,-0.226 0.062,-0.554 0.261,-0.715 0.379,-0.294 0.981,-0.404 1.192,-0.892 0.144,-0.377 0,-0.705 -0.188,-0.945 -0.265,-0.377 -0.664,-0.69 -1.105,-0.899 -0.121,-0.06 -0.34,-0.158 -0.555,-0.09 -0.383,0.125 -0.523,0.848 -0.859,1.08 -0.133,0.086 -0.301,0.11 -0.477,0.069 -0.023,-0.133 -0.051,-0.194 -0.14,-0.309 -0.063,-0.072 -0.205,-0.174 -0.205,-0.189 0.019,-0.149 0.115,-0.289 0.162,-0.332 0.187,-0.168 0.574,-0.276 0.66,-0.502 -0.047,-0.061 -0.137,-0.074 -0.215,-0.08 -0.414,-0.016 -0.607,0.357 -0.998,0.388 -0.094,0.01 -0.262,0 -0.356,-0.07 0.02,-0.113 0.016,-0.158 -0.015,-0.254 -0.039,-0.119 -0.071,-0.158 -0.125,-0.244 0.066,-0.309 0.594,-0.338 1.013,-0.377 0.129,-0.012 0.27,-0.031 0.329,-0.121 -0.106,-0.092 -0.243,-0.178 -0.397,-0.209 -0.312,-0.053 -0.598,0.121 -0.898,0.146 -0.102,0.004 -0.235,-0.029 -0.344,-0.099 0.027,-0.067 0.043,-0.215 0.016,-0.334 -0.032,-0.145 -0.04,-0.219 -0.086,-0.275 0.054,-0.046 0.203,-0.132 0.367,-0.136 0.429,-0.02 0.781,0.331 1.232,0.169 -0.179,-0.275 -0.486,-0.29 -0.744,-0.451 -0.101,-0.07 -0.211,-0.175 -0.277,-0.3 0.093,-0.043 0.168,-0.11 0.226,-0.192 0.051,-0.078 0.09,-0.16 0.102,-0.281 0.537,-0.039 0.783,0.316 1.037,0.602 0.375,0.406 0.902,0.67 1.621,0.723 0.785,0.057 1.789,-0.317 2.141,0.356 -0.434,0.019 -0.95,0.103 -1.102,0.402 0.762,-0.219 1.703,-0.006 2.09,0.477 -0.527,-0.1 -1.066,0.025 -1.273,0.353 0.585,-0.154 1.222,-0.064 1.671,0.205 0.293,0.178 0.614,0.445 0.696,0.779 -0.043,-0.005 -0.137,-0.048 -0.211,-0.084 -0.375,-0.164 -1.035,-0.132 -1.192,0.17 0.34,-0.021 0.649,0.039 0.891,0.168 0.324,0.186 0.492,0.459 0.602,0.647 0.128,0.24 0.25,0.484 0.418,0.681 0.07,0.083 0.148,0.125 0.214,0.151 -0.054,0.064 -0.199,0.074 -0.293,0.055 -0.48,-0.09 -0.687,-0.534 -1.14,-0.627 0.172,0.472 0.246,1.103 0.258,1.65 0.914,-0.352 1.718,-0.078 2.125,0.475 0.246,0.332 0.304,0.74 0.304,1.025 0,0.57 -0.304,0.994 -0.59,1.307 C 8.557,-7.99 7.877,-7.568 7.225,-7.119 6.775,-6.811 6.314,-6.492 5.939,-6.145 5.67,-5.899 5.377,-5.561 5.31,-5.15 5.209,-4.533 5.588,-4.061 6.01,-3.93 7.381,-3.512 8.791,-5 9.455,-5.781 9.607,-5.957 10.154,-6.594 9.939,-7.01 9.873,-7.123 9.713,-7.19 9.6,-7.18 9.404,-7.158 9.244,-6.975 9.385,-6.676 9.021,-6.762 8.869,-7.299 9.084,-7.598 c 0.148,-0.228 0.414,-0.26 0.613,-0.222 0.176,0.031 0.336,0.132 0.418,0.267 -0.246,-0.734 0.035,-1.51 0.403,-1.916 0.433,-0.486 1.058,-0.597 1.324,-0.617 0.676,-0.039 1.355,0.127 1.797,0.689 0.296,0.383 0.449,0.944 0.296,1.438"
         style="fill:#ee2722;fill-opacity:1;fill-rule:nonzero;stroke:none"
         id="path1388"
         inkscape:connector-curvature="0" />
    </g>
    <g
       id="g1390"
       transform="matrix(1.25,0,0,-1.25,387.52112,498.98632)">
      <path
         d="M 0,0 2.285,2.561 4.531,-0.043 2.324,-2.594 0,0 Z m 2.305,4.328 -3.848,-4.334 3.848,-4.34 3.758,4.34 -3.758,4.334 z"
         style="fill:#fff000;fill-opacity:1;fill-rule:nonzero;stroke:none"
         id="path1392"
         inkscape:connector-curvature="0" />
    </g>
    <g
       id="g1394"
       transform="matrix(1.25,0,0,-1.25,359.59387,502.22832)">
      <path
         d="M 0,0 -2.32,2.594 -0.031,5.154 2.215,2.551 0,0 Z m -3.867,2.588 3.855,-4.34 3.758,4.34 -3.758,4.334 -3.855,-4.334 z"
         style="fill:#fff000;fill-opacity:1;fill-rule:nonzero;stroke:none"
         id="path1396"
         inkscape:connector-curvature="0" />
    </g>
    <g
       id="g1398"
       transform="matrix(1.25,0,0,-1.25,377.64325,511.53257)">
      <path
         d="m 0,0 c -0.672,0.174 -1.379,0.338 -1.99,-0.02 l 0,-0.175 c 0.576,0.398 1.256,0.228 1.955,0.056 0.598,-0.15 1.203,-0.299 1.773,-0.08 l 0,0.155 C 1.203,-0.295 0.625,-0.148 0,0"
         style="fill:#1c4f9c;fill-opacity:1;fill-rule:nonzero;stroke:none"
         id="path1400"
         inkscape:connector-curvature="0" />
    </g>
    <g
       id="g1402"
       transform="matrix(1.25,0,0,-1.25,371.762,509.81632)">
      <path
         d="m 0,0 c -0.617,-0.154 -1.215,-0.299 -1.734,-0.07 l 0,-0.159 c 0.554,-0.214 1.171,-0.06 1.773,0.084 0.695,0.174 1.363,0.338 1.953,-0.054 l 0,0.178 C 1.379,0.338 0.676,0.17 0,0"
         style="fill:#1c4f9c;fill-opacity:1;fill-rule:nonzero;stroke:none"
         id="path1404"
         inkscape:connector-curvature="0" />
    </g>
    <g
       id="g1406"
       transform="matrix(1.25,0,0,-1.25,371.762,508.11957)">
      <path
         d="m 0,0 c -0.617,-0.16 -1.215,-0.299 -1.734,-0.074 l 0,-0.154 c 0.554,-0.215 1.171,-0.061 1.773,0.078 0.695,0.179 1.363,0.343 1.953,-0.049 l 0,0.179 C 1.379,0.344 0.676,0.168 0,0"
         style="fill:#1c4f9c;fill-opacity:1;fill-rule:nonzero;stroke:none"
         id="path1408"
         inkscape:connector-curvature="0" />
    </g>
    <g
       id="g1410"
       transform="matrix(1.25,0,0,-1.25,371.762,511.53257)">
      <path
         d="m 0,0 c -0.617,-0.148 -1.211,-0.295 -1.734,-0.064 l 0,-0.155 c 0.554,-0.219 1.171,-0.07 1.773,0.08 0.695,0.172 1.363,0.342 1.953,-0.056 l 0,0.175 C 1.379,0.338 0.676,0.174 0,0"
         style="fill:#1c4f9c;fill-opacity:1;fill-rule:nonzero;stroke:none"
         id="path1412"
         inkscape:connector-curvature="0" />
    </g>
    <g
       id="g1414"
       transform="matrix(1.25,0,0,-1.25,377.64325,508.11957)">
      <path
         d="m 0,0 c -0.672,0.168 -1.379,0.344 -1.99,-0.02 l 0,-0.179 c 0.576,0.392 1.256,0.228 1.955,0.049 0.598,-0.139 1.203,-0.293 1.773,-0.078 l 0,0.154 C 1.203,-0.299 0.625,-0.16 0,0"
         style="fill:#1c4f9c;fill-opacity:1;fill-rule:nonzero;stroke:none"
         id="path1416"
         inkscape:connector-curvature="0" />
    </g>
    <g
       id="g1418"
       transform="matrix(1.25,0,0,-1.25,377.64325,509.81632)">
      <path
         d="m 0,0 c -0.672,0.17 -1.379,0.338 -1.99,-0.021 l 0,-0.178 c 0.576,0.392 1.256,0.228 1.955,0.054 0.598,-0.144 1.203,-0.298 1.773,-0.084 l 0,0.159 C 1.203,-0.299 0.625,-0.154 0,0"
         style="fill:#1c4f9c;fill-opacity:1;fill-rule:nonzero;stroke:none"
         id="path1420"
         inkscape:connector-curvature="0" />
    </g>
    <g
       id="g1422"
       transform="matrix(1.25,0,0,-1.25,365.15075,542.94857)">
      <path
         d="M 0,0 C 0.379,0.367 0.68,0.18 0.68,0.18 0.859,0.361 0.828,0.768 0.691,0.871 0.312,0.771 -0.012,0.488 0,0"
         style="fill:#1c4f9c;fill-opacity:1;fill-rule:nonzero;stroke:none"
         id="path1424"
         inkscape:connector-curvature="0" />
    </g>
    <g
       id="g1426"
       transform="matrix(1.25,0,0,-1.25,365.16525,540.7587)">
      <path
         d="M 0,0 C 0,0 0.184,0.074 0.453,0.07 0.66,0.063 0.836,0.004 0.836,0.004 1,0.084 1.176,0.442 1.051,0.621 0.555,0.598 0.121,0.348 0,0"
         style="fill:#1c4f9c;fill-opacity:1;fill-rule:nonzero;stroke:none"
         id="path1428"
         inkscape:connector-curvature="0" />
    </g>
    <g
       id="g1430"
       transform="matrix(1.25,0,0,-1.25,363.53437,539.33057)">
      <path
         d="M 0,0 C 0,0 0.027,-0.457 0.348,-0.734 0.437,-0.82 0.566,-0.91 0.719,-0.904 0.535,-0.682 0.59,-0.295 0.727,-0.035 0.562,0.121 0.195,0.121 0,0"
         style="fill:#1c4f9c;fill-opacity:1;fill-rule:nonzero;stroke:none"
         id="path1432"
         inkscape:connector-curvature="0" />
    </g>
    <g
       id="g1434"
       transform="matrix(1.25,0,0,-1.25,364.06675,527.85832)">
      <path
         d="m 0,0 c -0.527,0.146 -1.074,-0.143 -1.215,-0.539 0,0 0.414,0.162 0.781,-0.012 0,0 0.375,0.223 0.434,0.551"
         style="fill:#1c4f9c;fill-opacity:1;fill-rule:nonzero;stroke:none"
         id="path1436"
         inkscape:connector-curvature="0" />
    </g>
    <g
       id="g1438"
       transform="matrix(1.25,0,0,-1.25,365.98537,527.63857)">
      <path
         d="M 0,0 C 0.203,0.123 0.496,0.16 0.777,0.104 0.758,0.27 0.547,0.428 0.438,0.473 0.191,0.592 0.043,0.641 -0.25,0.637 -0.457,0.627 -0.578,0.562 -0.578,0.562 -0.367,0.432 -0.078,0.293 0,0"
         style="fill:#1c4f9c;fill-opacity:1;fill-rule:nonzero;stroke:none"
         id="path1440"
         inkscape:connector-curvature="0" />
    </g>
    <g
       id="g1442"
       transform="matrix(1.25,0,0,-1.25,368.18762,538.48332)">
      <path
         d="M 0,0 C -0.324,0.104 -0.734,0.041 -0.988,-0.086 -1.215,-0.199 -1.363,-0.379 -1.363,-0.379 -0.766,-0.318 -0.48,-0.576 -0.48,-0.576 -0.297,-0.537 0.023,-0.248 0,0"
         style="fill:#1c4f9c;fill-opacity:1;fill-rule:nonzero;stroke:none"
         id="path1444"
         inkscape:connector-curvature="0" />
    </g>
    <g
       id="g1446"
       transform="matrix(1.25,0,0,-1.25,361.68362,537.71432)">
      <path
         d="m 0,0 c -0.191,-0.197 -0.363,-0.57 -0.289,-0.971 0.039,-0.187 0.188,-0.277 0.188,-0.277 0.046,0.244 0.242,0.518 0.57,0.547 C 0.547,-0.262 0.168,0 0,0"
         style="fill:#1c4f9c;fill-opacity:1;fill-rule:nonzero;stroke:none"
         id="path1448"
         inkscape:connector-curvature="0" />
    </g>
    <g
       id="g1450"
       transform="matrix(1.25,0,0,-1.25,361.48374,535.71232)">
      <path
         d="m 0,0 c 0,0 -0.27,-0.064 -0.559,-0.393 -0.121,-0.138 -0.261,-0.408 -0.207,-0.63 0,0 0.157,0.173 0.43,0.253 0.16,0.049 0.285,0.045 0.367,0.02 C 0.18,-0.666 0.25,-0.158 0,0"
         style="fill:#1c4f9c;fill-opacity:1;fill-rule:nonzero;stroke:none"
         id="path1452"
         inkscape:connector-curvature="0" />
    </g>
    <g
       id="g1454"
       transform="matrix(1.25,0,0,-1.25,374.71112,515.08983)">
      <path
         d="m 0,0 c 0.637,0 0.912,0.541 0.912,0.541 0.895,-0.014 4.891,0 4.891,0 l -0.016,5.781 -0.613,0 0.004,-5.197 C 5.178,1.125 4.85,0.82 4.111,0.82 3.228,0.82 2.228,1.199 1.33,1.199 0.445,1.199 0.094,0.76 0,0.686 c 0,0 -0.449,0.513 -1.301,0.513 -0.883,0 -1.933,-0.363 -2.969,-0.363 -0.539,0 -0.843,0.258 -0.921,0.289 l 0.011,5.197 -0.593,0 0,-5.781 4.855,0 C -0.918,0.541 -0.672,0 0,0"
         style="fill:#1c4f9c;fill-opacity:1;fill-rule:nonzero;stroke:none"
         id="path1456"
         inkscape:connector-curvature="0" />
    </g>
    <g
       id="g1458"
       transform="matrix(1.25,0,0,-1.25,361.90837,531.71082)">
      <path
         d="m 0,0 c 0,0 0.27,0.363 0.102,0.611 -0.524,-0.056 -0.86,-0.343 -1.02,-0.693 0,0 0.488,0.185 0.918,0.082"
         style="fill:#1c4f9c;fill-opacity:1;fill-rule:nonzero;stroke:none"
         id="path1460"
         inkscape:connector-curvature="0" />
    </g>
    <g
       id="g1462"
       transform="matrix(1.25,0,0,-1.25,367.76287,543.7762)">
      <path
         d="m 0,0 c 0,0 -0.18,-0.67 0.297,-0.877 0,0 -0.086,0.356 0.277,0.633 C 0.48,-0.023 0.203,0.115 0,0"
         style="fill:#1c4f9c;fill-opacity:1;fill-rule:nonzero;stroke:none"
         id="path1464"
         inkscape:connector-curvature="0" />
    </g>
    <g
       id="g1466"
       transform="matrix(1.25,0,0,-1.25,361.31274,534.20107)">
      <path
         d="M 0,0 C 0.266,0.045 0.664,0.07 0.867,-0.109 1.191,0.066 1.348,0.389 1.309,0.518 1.27,0.543 1.074,0.547 1.02,0.547 0.477,0.559 0.164,0.318 0,0"
         style="fill:#1c4f9c;fill-opacity:1;fill-rule:nonzero;stroke:none"
         id="path1468"
         inkscape:connector-curvature="0" />
    </g>
    <g
       id="g1470"
       transform="matrix(1.25,0,0,-1.25,362.0355,530.19945)">
      <path
         d="m 0,0 c 0,0 0.262,0.383 0.016,0.676 -0.403,-0.09 -0.735,-0.405 -0.797,-0.856 0,0 0.136,0.094 0.277,0.139 C -0.297,0.029 -0.113,0.014 0,0"
         style="fill:#1c4f9c;fill-opacity:1;fill-rule:nonzero;stroke:none"
         id="path1472"
         inkscape:connector-curvature="0" />
    </g>
    <g
       id="g1474"
       transform="matrix(1.25,0,0,-1.25,374.716,519.2277)">
      <path
         d="m 0,0 16.447,-9.649 c 1.891,5.071 1.856,11.377 1.535,20.252 L 0,0 Z"
         style="fill:#1c4f9c;fill-opacity:1;fill-rule:nonzero;stroke:none"
         id="path1476"
         inkscape:connector-curvature="0" />
    </g>
    <g
       id="g1478"
       transform="matrix(1.25,0,0,-1.25,374.71112,526.5057)">
      <path
         d="m 0,0 c -0.063,-0.137 -0.094,-0.408 -0.156,-0.549 0.133,-0.029 0.281,0.084 0.383,0.135 C 0.152,-0.295 0.07,-0.125 0,0"
         style="fill:#1c4f9c;fill-opacity:1;fill-rule:nonzero;stroke:none"
         id="path1480"
         inkscape:connector-curvature="0" />
    </g>
    <g
       id="g1482"
       transform="matrix(1.25,0,0,-1.25,373.095,545.69632)">
      <path
         d="m 0,0 c 0,0 0.113,0.098 0.301,0.172 0.136,0.067 0.39,0.1 0.531,0.015 C 0.957,0.253 1.008,0.71 0.902,0.796 0.512,0.755 0.047,0.436 0,0"
         style="fill:#1c4f9c;fill-opacity:1;fill-rule:nonzero;stroke:none"
         id="path1484"
         inkscape:connector-curvature="0" />
    </g>
    <g
       id="g1486"
       transform="matrix(1.25,0,0,-1.25,373.25599,526.60582)">
      <path
         d="M 0,0 C -0.047,-0.076 -0.113,-0.248 -0.183,-0.338 -0.082,-0.369 0.086,-0.414 0.164,-0.404 0.117,-0.305 0.051,-0.09 0,0"
         style="fill:#1c4f9c;fill-opacity:1;fill-rule:nonzero;stroke:none"
         id="path1488"
         inkscape:connector-curvature="0" />
    </g>
    <g
       id="g1490"
       transform="matrix(1.25,0,0,-1.25,374.76962,551.18957)">
      <path
         d="m 0,0 c -16.352,7.929 -19.191,14.624 -19.191,29.321 0,3.34 0.144,7.09 0.312,11.364 0,0 0.219,6.13 0.262,7.293 l 37.24,0 c 0.039,-1.163 0.254,-7.288 0.254,-7.288 0.168,-4.279 0.312,-8.035 0.312,-11.379 C 19.189,14.624 16.35,7.929 0,0 m 20.17,40.645 -0.309,8.594 -39.732,0.004 -0.301,-8.607 C -21.07,17.532 -21.406,8.884 -0.309,-1.258 L 0,-1.406 0.313,-1.258 C 21.412,8.884 21.068,17.532 20.17,40.645"
         style="fill:#1c4f9c;fill-opacity:1;fill-rule:nonzero;stroke:none"
         id="path1492"
         inkscape:connector-curvature="0" />
    </g>
    <g
       id="g1494"
       transform="matrix(1.25,0,0,-1.25,354.25212,531.28858)">
      <path
         d="M 0,0 16.371,9.649 -1.535,20.162 C -1.855,11.338 -1.879,5.059 0,0"
         style="fill:#1c4f9c;fill-opacity:1;fill-rule:nonzero;stroke:none"
         id="path1496"
         inkscape:connector-curvature="0" />
    </g>
    <g
       id="g1498"
       transform="matrix(1.25,0,0,-1.25,374.9505,542.44583)">
      <path
         d="M 0,0 C 0.18,0.066 0.445,0.086 0.602,-0.051 0.807,0.08 0.951,0.258 0.947,0.447 0.547,0.563 0.07,0.395 0,0"
         style="fill:#1c4f9c;fill-opacity:1;fill-rule:nonzero;stroke:none"
         id="path1500"
         inkscape:connector-curvature="0" />
    </g>
    <g
       id="g1502"
       transform="matrix(1.25,0,0,-1.25,374.85762,546.36057)">
      <path
         d="m 0,0 c -0.176,-0.137 -0.449,-0.562 -0.398,-0.902 0.027,-0.164 0.164,-0.246 0.164,-0.246 0.07,0.296 0.336,0.582 0.562,0.675 C 0.379,-0.301 0.133,-0.004 0,0"
         style="fill:#1c4f9c;fill-opacity:1;fill-rule:nonzero;stroke:none"
         id="path1504"
         inkscape:connector-curvature="0" />
    </g>
    <g
       id="g1506"
       transform="matrix(1.25,0,0,-1.25,373.33412,525.2997)">
      <path
         d="M 0,0 C 0.051,-0.105 0.137,-0.398 0.141,-0.398 0.203,-0.269 0.301,-0.08 0.359,0.063 0.23,0.063 0.082,0.033 0,0"
         style="fill:#1c4f9c;fill-opacity:1;fill-rule:nonzero;stroke:none"
         id="path1508"
         inkscape:connector-curvature="0" />
    </g>
    <g
       id="g1510"
       transform="matrix(1.25,0,0,-1.25,372.60675,525.51195)">
      <path
         d="M 0,0 C 0,0 0.144,-0.225 0.187,-0.318 L 0.316,0.103 C 0.242,0.103 0.078,0.041 0,0"
         style="fill:#1c4f9c;fill-opacity:1;fill-rule:nonzero;stroke:none"
         id="path1512"
         inkscape:connector-curvature="0" />
    </g>
    <g
       id="g1514"
       transform="matrix(1.25,0,0,-1.25,374.04712,525.18982)">
      <path
         d="m 0,0 c 0,0 0.129,-0.309 0.184,-0.432 0.05,0.127 0.183,0.297 0.25,0.426 C 0.297,0.031 0.141,0.041 0,0"
         style="fill:#1c4f9c;fill-opacity:1;fill-rule:nonzero;stroke:none"
         id="path1516"
         inkscape:connector-curvature="0" />
    </g>
    <g
       id="g1518"
       transform="matrix(1.25,0,0,-1.25,373.74924,527.19907)">
      <path
         d="M 0,0 C 0.129,-0.023 0.254,-0.063 0.375,-0.039 0.316,0.086 0.211,0.348 0.18,0.475 0.148,0.344 0.035,0.096 0,0"
         style="fill:#1c4f9c;fill-opacity:1;fill-rule:nonzero;stroke:none"
         id="path1520"
         inkscape:connector-curvature="0" />
    </g>
    <g
       id="g1522"
       transform="matrix(1.25,0,0,-1.25,373.54887,543.91307)">
      <path
         d="M 0,0 C 0.156,0.115 0.551,0.205 0.836,0.029 0.922,0.076 1.051,0.365 0.977,0.527 0.539,0.662 0.09,0.369 0,0"
         style="fill:#1c4f9c;fill-opacity:1;fill-rule:nonzero;stroke:none"
         id="path1524"
         inkscape:connector-curvature="0" />
    </g>
    <g
       id="g1526"
       transform="matrix(1.25,0,0,-1.25,375.27274,525.8977)">
      <path
         d="m 0,0 c -0.16,0.025 -0.387,0.014 -0.582,-0.02 -0.676,-0.109 -1.512,-0.228 -2.039,-0.195 -0.426,0.031 -1.031,0.168 -1.039,0.756 -0.008,0.221 0.109,0.426 0.109,0.426 -0.238,-0.051 -0.535,-0.356 -0.504,-0.744 0.047,-0.467 0.465,-0.735 1.289,-0.76 0.68,-0.026 1.586,0.183 2.164,0.318 C -0.195,-0.119 0,0 0,0"
         style="fill:#1c4f9c;fill-opacity:1;fill-rule:nonzero;stroke:none"
         id="path1528"
         inkscape:connector-curvature="0" />
    </g>
    <g
       id="g1530"
       transform="matrix(1.25,0,0,-1.25,369.20825,512.99982)">
      <path
         d="m 0,0 0,5.115 c 0.637,-0.41 1.383,-0.25 2.086,-0.078 0.828,0.207 1.602,0.4 2.242,-0.312 l 0,-5.178 C 3.652,0.174 2.836,0.029 2.051,-0.149 1.301,-0.318 0.609,-0.473 0,0 M 4.473,4.738 C 5.109,5.394 5.885,5.244 6.713,5.037 7.42,4.865 8.15,4.705 8.787,5.115 l 0,-5.121 C 8.213,-0.418 7.49,-0.318 6.76,-0.149 5.971,0.029 5.164,0.174 4.473,-0.447 l 0,5.185 z m -1.27,-4.863 c 0.684,0 1.121,-0.508 1.121,-0.508 l 0.16,0 c 0.293,0.318 0.645,0.508 1.108,0.508 0.734,0 1.547,-0.318 2.226,-0.313 0.637,0.01 1.047,0.329 1.106,0.368 l 0,5.461 L 8.795,5.297 C 8.197,4.826 7.49,4.994 6.756,5.178 5.939,5.381 5.109,5.566 4.402,4.85 3.699,5.555 2.852,5.381 2.051,5.178 1.301,4.994 0.605,4.826 0,5.297 l -0.117,0.094 0,-5.452 c 0.055,-0.039 0.422,-0.392 1.094,-0.392 0.675,0 1.515,0.328 2.226,0.328"
         style="fill:#1c4f9c;fill-opacity:1;fill-rule:nonzero;stroke:none"
         id="path1532"
         inkscape:connector-curvature="0" />
    </g>
    <g
       id="g1534"
       transform="matrix(1.25,0,0,-1.25,371.81062,509.99707)">
      <path
         d="m 0,0 c 0.695,0.174 1.363,0.338 1.953,-0.055 l 0,0.178 C 1.34,0.482 0.637,0.315 -0.039,0.145 -0.656,-0.01 -1.254,-0.154 -1.773,0.074 l 0,-0.158 C -1.219,-0.299 -0.602,-0.144 0,0"
         style="fill:#1c4f9c;fill-opacity:1;fill-rule:nonzero;stroke:none"
         id="path1536"
         inkscape:connector-curvature="0" />
    </g>
    <g
       id="g1538"
       transform="matrix(1.25,0,0,-1.25,371.81062,508.30757)">
      <path
         d="m 0,0 c 0.695,0.18 1.363,0.344 1.953,-0.049 l 0,0.18 C 1.34,0.494 0.637,0.318 -0.039,0.15 -0.656,-0.01 -1.254,-0.148 -1.773,0.076 l 0,-0.154 C -1.219,-0.293 -0.602,-0.139 0,0"
         style="fill:#1c4f9c;fill-opacity:1;fill-rule:nonzero;stroke:none"
         id="path1540"
         inkscape:connector-curvature="0" />
    </g>
    <g
       id="g1542"
       transform="matrix(1.25,0,0,-1.25,374.25212,511.7767)">
      <path
         d="M 0,0 0,0.176 C -0.613,0.533 -1.316,0.369 -1.992,0.195 -2.609,0.047 -3.203,-0.1 -3.727,0.131 l 0,-0.154 c 0.555,-0.219 1.172,-0.071 1.774,0.08 C -1.258,0.229 -0.59,0.398 0,0"
         style="fill:#1c4f9c;fill-opacity:1;fill-rule:nonzero;stroke:none"
         id="path1544"
         inkscape:connector-curvature="0" />
    </g>
    <g
       id="g1546"
       transform="matrix(1.25,0,0,-1.25,377.59937,509.99707)">
      <path
         d="m 0,0 c 0.598,-0.144 1.203,-0.299 1.773,-0.084 l 0,0.158 C 1.238,-0.154 0.66,-0.01 0.035,0.145 -0.637,0.315 -1.344,0.482 -1.955,0.123 l 0,-0.178 C -1.379,0.338 -0.699,0.174 0,0"
         style="fill:#1c4f9c;fill-opacity:1;fill-rule:nonzero;stroke:none"
         id="path1548"
         inkscape:connector-curvature="0" />
    </g>
    <g
       id="g1550"
       transform="matrix(1.25,0,0,-1.25,377.59937,508.30757)">
      <path
         d="m 0,0 c 0.598,-0.139 1.203,-0.293 1.773,-0.078 l 0,0.154 C 1.238,-0.148 0.66,-0.01 0.035,0.15 -0.637,0.318 -1.344,0.494 -1.955,0.131 l 0,-0.18 C -1.379,0.344 -0.699,0.18 0,0"
         style="fill:#1c4f9c;fill-opacity:1;fill-rule:nonzero;stroke:none"
         id="path1552"
         inkscape:connector-curvature="0" />
    </g>
    <g
       id="g1554"
       transform="matrix(1.25,0,0,-1.25,377.59937,511.70607)">
      <path
         d="m 0,0 c 0.598,-0.15 1.203,-0.299 1.773,-0.08 l 0,0.154 C 1.238,-0.156 0.66,-0.01 0.035,0.139 -0.637,0.313 -1.344,0.477 -1.955,0.119 l 0,-0.176 C -1.379,0.342 -0.699,0.172 0,0"
         style="fill:#1c4f9c;fill-opacity:1;fill-rule:nonzero;stroke:none"
         id="path1556"
         inkscape:connector-curvature="0" />
    </g>
  </g>
</svg>
