<?xml version="1.0" encoding="UTF-8" standalone="no"?>
<!-- Created with Inkscape (http://www.inkscape.org/) -->

<svg
   xmlns:dc="http://purl.org/dc/elements/1.1/"
   xmlns:cc="http://creativecommons.org/ns#"
   xmlns:rdf="http://www.w3.org/1999/02/22-rdf-syntax-ns#"
   xmlns:svg="http://www.w3.org/2000/svg"
   xmlns="http://www.w3.org/2000/svg"
   xmlns:xlink="http://www.w3.org/1999/xlink"
   xmlns:sodipodi="http://sodipodi.sourceforge.net/DTD/sodipodi-0.dtd"
   xmlns:inkscape="http://www.inkscape.org/namespaces/inkscape"
   width="256.00003"
   height="256.00174"
   viewBox="0 0 67.733337 67.733795"
   version="1.1"
   id="svg872"
   inkscape:version="0.92.1 r15371"
   sodipodi:docname="logo.svg">
  <defs
     id="defs866">
    <linearGradient
       inkscape:collect="always"
       xlink:href="#linearGradient9087"
       id="linearGradient4168"
       gradientUnits="userSpaceOnUse"
       gradientTransform="translate(-66.756749,-107.2577)"
       x1="130.75674"
       y1="123.25771"
       x2="354.75674"
       y2="347.25769" />
    <linearGradient
       inkscape:collect="always"
       id="linearGradient9087">
      <stop
         style="stop-color:#000000;stop-opacity:0.75"
         offset="0"
         id="stop9089" />
      <stop
         style="stop-color:#000000;stop-opacity:0.25"
         offset="1"
         id="stop9091" />
    </linearGradient>
    <linearGradient
       inkscape:collect="always"
       xlink:href="#linearGradient174"
       id="linearGradient4170"
       gradientUnits="userSpaceOnUse"
       gradientTransform="matrix(0.99321291,0,0,0.99321291,-72.442783,-16.284543)"
       x1="198.97906"
       y1="-22.031084"
       x2="198.97906"
       y2="322.96939" />
    <linearGradient
       x1="0"
       y1="0"
       x2="1"
       y2="0"
       gradientUnits="userSpaceOnUse"
       gradientTransform="matrix(3e-8,-379.772,-379.772,-3e-8,49.446504,332.11949)"
       spreadMethod="pad"
       id="linearGradient174">
      <stop
         style="stop-opacity:1;stop-color:#d4ff2a"
         offset="0"
         id="stop176" />
      <stop
         style="stop-opacity:1;stop-color:#5fd35f"
         offset="0.219388"
         id="stop178" />
      <stop
         style="stop-opacity:1;stop-color:#48ade2"
         offset="0.736888"
         id="stop180" />
      <stop
         style="stop-opacity:1;stop-color:#7137c8"
         offset="1"
         id="stop182" />
    </linearGradient>
  </defs>
  <sodipodi:namedview
     id="base"
     pagecolor="#ffffff"
     bordercolor="#666666"
     borderopacity="1.0"
     inkscape:pageopacity="0.0"
     inkscape:pageshadow="2"
     inkscape:zoom="0.35"
     inkscape:cx="1066.5714"
     inkscape:cy="-554.85628"
     inkscape:document-units="mm"
     inkscape:current-layer="layer1"
     showgrid="false"
     fit-margin-top="0"
     fit-margin-left="0"
     fit-margin-right="0"
     fit-margin-bottom="0"
     units="px"
     inkscape:window-width="1920"
     inkscape:window-height="1017"
     inkscape:window-x="1912"
     inkscape:window-y="-8"
     inkscape:window-maximized="1" />
  <metadata
     id="metadata869">
    <rdf:RDF>
      <cc:Work
         rdf:about="">
        <dc:format>image/svg+xml</dc:format>
        <dc:type
           rdf:resource="http://purl.org/dc/dcmitype/StillImage" />
        <dc:title></dc:title>
      </cc:Work>
    </rdf:RDF>
  </metadata>
  <g
     inkscape:label="Layer 1"
     inkscape:groupmode="layer"
     id="layer1"
     transform="translate(305.25357,65.706186)">
    <rect
       ry="2.1166637"
       y="-65.706184"
       x="-305.25357"
       height="67.73333"
       width="67.73333"
       id="rect4158"
       style="opacity:1;fill:#333333;fill-opacity:1;stroke:none;stroke-width:0.13229166;stroke-linecap:square;stroke-linejoin:round;stroke-miterlimit:4;stroke-dasharray:none;stroke-dashoffset:0;stroke-opacity:1" />
    <g
       id="g4160"
       transform="matrix(0.26458333,0,0,0.26458333,-322.91629,-94.084786)">
      <path
         inkscape:connector-curvature="0"
         style="opacity:0.75;fill:url(#linearGradient4168);fill-opacity:1;stroke:none;stroke-width:0.5;stroke-linecap:square;stroke-linejoin:round;stroke-miterlimit:4;stroke-dasharray:none;stroke-dashoffset:0;stroke-opacity:1"
         d="m 128,17.855469 0.002,0.002 c -16.28259,1e-5 -31.898666,6.478722 -43.412106,18.007812 -11.51344,11.52909 -17.982672,27.16429 -17.982422,43.46875 0.0227,0.62768 0.05576,1.256133 0.09766,1.882813 h -0.09766 v 94.355476 h 0.0039 v 0.004 h 0.0078 v 0.006 h 0.0078 v 0.008 h 0.002 c -0.0101,0.36007 -0.01768,0.7199 -0.02148,1.08008 1.8e-4,11.67278 3.250668,22.58511 8.892578,31.88086 0.51188,0.84339 1.04311,1.67411 1.59375,2.49024 0.001,10e-4 0.0029,0.002 0.0039,0.004 0.5507,0.81606 1.118861,1.61874 1.707032,2.40625 0.001,0.001 0.0029,0.002 0.0039,0.004 0.58823,0.78744 1.193949,1.56074 1.818359,2.31836 0.001,0.001 0.0029,0.002 0.0039,0.004 0.62447,0.75756 1.266402,1.50012 1.925782,2.22657 l 0.0039,0.004 0.0078,0.006 c 0.65831,0.72493 1.333591,1.4343 2.025391,2.12695 0.002,0.002 0.0039,0.004 0.0059,0.006 9.7e-4,9.7e-4 9.43e-4,0.003 0.002,0.004 l 0.0059,0.006 0.0098,0.01 0.01172,0.0117 0.01563,0.0156 0.01758,0.0176 0.01953,0.0195 0.02148,0.0215 c 0.0146,0.0147 0.03032,0.0283 0.04492,0.043 0.0127,0.0127 0.02441,0.0264 0.03711,0.0391 0.011,0.0111 0.0221,0.0221 0.0332,0.0332 0.0114,0.0114 0.02376,0.0218 0.03516,0.0332 0.0202,0.0202 0.04025,0.0404 0.06055,0.0606 l 0.01758,0.0176 c 0.006,0.007 0.01498,0.015 0.02148,0.0215 0.0218,0.0218 0.04275,0.0446 0.06445,0.0664 0.0153,0.0153 0.03158,0.0296 0.04687,0.0449 0.0169,0.017 0.03378,0.0338 0.05078,0.0508 l 0.05273,0.0527 c 0.0182,0.0183 0.03649,0.0365 0.05469,0.0547 0.0189,0.0189 0.03774,0.0378 0.05664,0.0566 l 0.08008,0.0801 0.02148,0.0215 c 0.0286,0.0287 0.05734,0.0573 0.08594,0.0859 0.0224,0.0225 0.04391,0.0459 0.06641,0.0684 0.0231,0.0231 0.04721,0.0452 0.07031,0.0684 l 0.07227,0.0723 c 0.0319,0.032 0.0638,0.0638 0.0957,0.0957 0.0185,0.0186 0.03814,0.0361 0.05664,0.0547 0.0198,0.0199 0.03869,0.0406 0.05859,0.0605 0.0344,0.0346 0.069,0.069 0.103515,0.10352 0.0348,0.0349 0.0706,0.0687 0.105469,0.10351 0.0153,0.0153 0.02962,0.0316 0.04492,0.0469 0.0364,0.0365 0.0729,0.0729 0.109375,0.10938 0.0306,0.0307 0.0612,0.0612 0.0918,0.0918 0.0315,0.0316 0.0641,0.0623 0.0957,0.0937 0.0322,0.0323 0.0634,0.0655 0.0957,0.0977 0.0332,0.0333 0.06641,0.0664 0.09961,0.0996 0.0341,0.0343 0.06931,0.0674 0.103516,0.10156 0.0348,0.0349 0.0687,0.0706 0.103516,0.10547 0.0357,0.0359 0.0716,0.0716 0.107422,0.10742 0.0361,0.0362 0.07319,0.0713 0.109375,0.10742 0.0374,0.0375 0.07381,0.0759 0.111328,0.11328 0.038,0.0382 0.07709,0.0752 0.115234,0.11328 0.0393,0.0395 0.0778,0.0798 0.117188,0.11915 0.0465,0.0467 0.094,0.0922 0.140625,0.13867 0.0338,0.0339 0.0677,0.0677 0.101562,0.10156 0.0344,0.0346 0.069,0.069 0.103516,0.10352 0.049,0.0493 0.0973,0.0993 0.146484,0.14843 0.0429,0.0431 0.0859,0.086 0.128906,0.12891 0.0439,0.044 0.0888,0.0869 0.132813,0.13086 0.0448,0.045 0.08979,0.0899 0.134765,0.13476 0.052,0.0522 0.104081,0.10423 0.15625,0.15625 0.0403,0.0404 0.0807,0.0808 0.121094,0.1211 0.0403,0.0405 0.08069,0.0807 0.121094,0.12109 0.0546,0.0549 0.109292,0.10941 0.164062,0.16406 0.0487,0.049 0.09761,0.0977 0.146485,0.14649 0.0494,0.0496 0.0989,0.099 0.148437,0.14844 0.0507,0.0509 0.101494,0.1016 0.152344,0.15234 0.0513,0.0516 0.102777,0.10291 0.154297,0.1543 0.052,0.0522 0.10409,0.10422 0.15625,0.15625 0.0533,0.0535 0.106686,0.10682 0.160156,0.16015 0.0539,0.0542 0.10799,0.10813 0.16211,0.16211 0.0546,0.0548 0.109292,0.10943 0.164062,0.16406 0.0552,0.0555 0.110596,0.11074 0.166016,0.16602 0.0565,0.0568 0.113192,0.11334 0.169922,0.16992 0.0565,0.0568 0.113182,0.11333 0.169921,0.16992 0.0584,0.0588 0.117092,0.11727 0.175782,0.17579 0.0591,0.0594 0.118394,0.11855 0.177734,0.17773 0.0591,0.0594 0.118375,0.11855 0.177734,0.17773 0.0604,0.0607 0.120991,0.12117 0.181641,0.18165 0.0685,0.0689 0.138191,0.1365 0.207031,0.20507 0.0484,0.0486 0.096,0.098 0.144532,0.14649 0.0695,0.0699 0.139184,0.1394 0.208984,0.20898 0.0633,0.0637 0.127816,0.12606 0.191406,0.18946 0.0646,0.065 0.12846,0.13062 0.19336,0.19531 0.0653,0.0656 0.131705,0.12997 0.197265,0.19531 0.0666,0.0669 0.132349,0.13453 0.199219,0.20117 0.0672,0.0676 0.135605,0.13389 0.203125,0.20117 0.074,0.0745 0.148236,0.14857 0.222656,0.22266 0.0559,0.0561 0.111889,0.11204 0.167969,0.16797 0.0824,0.083 0.165157,0.16554 0.248047,0.24805 0.0572,0.0575 0.114485,0.11464 0.171875,0.17187 0.0837,0.0843 0.167733,0.16812 0.251953,0.25195 0.0591,0.0594 0.118394,0.11857 0.177734,0.17774 0.0795,0.08 0.158362,0.16062 0.238282,0.24023 0.0743,0.0748 0.149899,0.14824 0.224609,0.22266 0.074,0.0745 0.148266,0.14856 0.222656,0.22265 0.0812,0.0817 0.162541,0.16295 0.244141,0.24415 0.0636,0.064 0.127486,0.12769 0.191406,0.1914 0.0831,0.0837 0.16645,0.1668 0.25,0.25 0.0773,0.0778 0.154752,0.15507 0.232422,0.23242 0.0792,0.0797 0.158651,0.15898 0.238281,0.23829 0.0792,0.0797 0.158651,0.15899 0.238282,0.23828 0.0798,0.0804 0.159944,0.16029 0.240234,0.24023 0.0811,0.0817 0.162541,0.1629 0.24414,0.24414 0.0886,0.0892 0.178439,0.17698 0.267579,0.26563 0.0766,0.0771 0.153448,0.15379 0.230468,0.23046 0.0766,0.0771 0.153489,0.15377 0.230469,0.23047 0.0905,0.0912 0.180424,0.1828 0.271484,0.27344 0.0854,0.086 0.171953,0.1704 0.257813,0.25586 0.086,0.0866 0.171302,0.17367 0.257813,0.25977 0.087,0.0876 0.174228,0.17465 0.261718,0.26172 0.0882,0.0889 0.176845,0.17728 0.265625,0.26562 0.0876,0.0882 0.175522,0.17596 0.263672,0.26367 0.0957,0.0964 0.192713,0.19132 0.289063,0.28711 0.0773,0.0777 0.154772,0.15509 0.232422,0.23242 0.0976,0.0984 0.194718,0.19718 0.292968,0.29492 0.0921,0.0928 0.184634,0.18512 0.277343,0.27735 0.0921,0.0928 0.18463,0.18512 0.27734,0.27734 0.0996,0.10033 0.20052,0.19918 0.30078,0.29883 0.0818,0.0823 0.16386,0.16423 0.2461,0.24609 0.10085,0.10171 0.20117,0.20368 0.30273,0.30469 0.0957,0.0964 0.19274,0.1913 0.28907,0.28711 0.10379,0.1046 0.20797,0.20864 0.3125,0.3125 0.085,0.0856 0.17035,0.17076 0.25586,0.25586 0.11025,0.1112 0.22094,0.22166 0.33203,0.33203 0.087,0.0876 0.17425,0.17467 0.26171,0.26172 0.10569,0.10661 0.21191,0.21251 0.31836,0.31836 0.10085,0.10167 0.20119,0.20373 0.30274,0.30469 0.10149,0.10233 0.20443,0.20307 0.30664,0.30469 0.10312,0.10397 0.2067,0.20731 0.31055,0.31054 0.11026,0.11116 0.22094,0.22171 0.33203,0.33203 0.0912,0.0918 0.18365,0.18218 0.27539,0.27344 0.11052,0.11154 0.22065,0.2233 0.33203,0.33399 0.1057,0.10658 0.21188,0.21253 0.31836,0.31835 0.10764,0.10856 0.21578,0.21646 0.32422,0.32422 0.10636,0.10725 0.21317,0.21386 0.32031,0.32032 0.10828,0.10922 0.21707,0.21777 0.32617,0.32617 0.10831,0.10924 0.21705,0.21774 0.32617,0.32617 0.11022,0.11118 0.22098,0.22168 0.33203,0.33203 0.11088,0.11184 0.22227,0.22299 0.33399,0.33398 0.11089,0.11188 0.22224,0.22297 0.33398,0.33399 0.1128,0.11381 0.22617,0.22691 0.33985,0.33984 0.1128,0.11381 0.22616,0.22692 0.33984,0.33985 0.11442,0.11546 0.23037,0.2292 0.3457,0.34375 0.11445,0.11549 0.22839,0.23112 0.34375,0.3457 0.11538,0.11643 0.23135,0.23215 0.34766,0.34766 0.11667,0.11775 0.23395,0.23475 0.35156,0.35156 0.11765,0.11873 0.23686,0.23573 0.35547,0.35351 0.11863,0.11973 0.23782,0.23868 0.35742,0.35743 0.12449,0.12564 0.24944,0.25044 0.375,0.375 0.10764,0.10856 0.21578,0.21647 0.32422,0.32421 0.12702,0.12832 0.25469,0.25562 0.38282,0.38282 0.12026,0.12139 0.24006,0.24289 0.36132,0.36328 0.12281,0.12399 0.24725,0.24619 0.3711,0.36914 0.12253,0.12369 0.24558,0.24648 0.36914,0.36914 0.12511,0.12632 0.25075,0.25171 0.37695,0.37695 0.12444,0.12563 0.24949,0.25045 0.375,0.375 0.12511,0.12632 0.25076,0.25173 0.37695,0.37696 0.12637,0.12761 0.25338,0.25436 0.38086,0.38086 0.12637,0.12761 0.25339,0.25436 0.38086,0.38085 0.12797,0.12926 0.25566,0.25861 0.38477,0.38672 0.12926,0.13056 0.2602,0.25928 0.39062,0.38868 0.12898,0.13027 0.25855,0.25956 0.38867,0.38867 0.13055,0.13188 0.26085,0.26383 0.39258,0.39453 0.13187,0.13322 0.26536,0.26447 0.39844,0.39648 0.13184,0.13318 0.26345,0.26646 0.39648,0.39844 0.1322,0.13353 0.26505,0.26612 0.39844,0.39844 0.13377,0.13517 0.26929,0.26842 0.4043,0.40234 0.13474,0.13615 0.27024,0.27136 0.40625,0.40625 0.13604,0.13746 0.27284,0.27398 0.41016,0.41016 0.14285,0.14434 0.28738,0.28676 0.43164,0.42969 0.13092,0.13217 0.26243,0.26355 0.39453,0.39453 0.13087,0.13223 0.26248,0.26349 0.39453,0.39453 0.15086,0.15261 0.30264,0.30406 0.45508,0.45508 0.12767,0.12892 0.25597,0.25697 0.38476,0.38476 0.0473,0.0478 0.0953,0.0948 0.14258,0.14258 L 248,256 c 4.432,0 8,-3.568 8,-8 V 120.45898 c -0.0677,-0.063 -0.13513,-0.12627 -0.20117,-0.1914 -0.10453,-0.10619 -0.20127,-0.21871 -0.30664,-0.32422 -0.11063,-0.11079 -0.22846,-0.21242 -0.33985,-0.32227 -0.10388,-0.10553 -0.19996,-0.21741 -0.30468,-0.32226 -0.11025,-0.11041 -0.22689,-0.2128 -0.33789,-0.32227 -0.10359,-0.10524 -0.20026,-0.21574 -0.30469,-0.32031 -0.11085,-0.11101 -0.22824,-0.21415 -0.33985,-0.32422 -0.10231,-0.10392 -0.19766,-0.21313 -0.30078,-0.31641 -0.10955,-0.1097 -0.22564,-0.21153 -0.33593,-0.32031 -0.10291,-0.10454 -0.19901,-0.21449 -0.30274,-0.31836 -0.10895,-0.1091 -0.2243,-0.21017 -0.33398,-0.31836 -0.10231,-0.10392 -0.19765,-0.21313 -0.30078,-0.3164 -0.11542,-0.11557 -0.23728,-0.22333 -0.35352,-0.33789 -0.0955,-0.0969 -0.18503,-0.19856 -0.28125,-0.29492 -0.1034,-0.10355 -0.21235,-0.20002 -0.31641,-0.30274 -0.10616,-0.10789 -0.20546,-0.22093 -0.3125,-0.32812 -0.1076,-0.10774 -0.22176,-0.2076 -0.33007,-0.31446 -0.10162,-0.10321 -0.1964,-0.21189 -0.29883,-0.31445 -0.10699,-0.10714 -0.22043,-0.20624 -0.32813,-0.3125 -0.10103,-0.1026 -0.19505,-0.21055 -0.29687,-0.3125 -0.10759,-0.10775 -0.22177,-0.20759 -0.33008,-0.31445 -0.0997,-0.10127 -0.19246,-0.20795 -0.29297,-0.3086 -0.1063,-0.10644 -0.21918,-0.20496 -0.32617,-0.31054 -0.10035,-0.10189 -0.19379,-0.20929 -0.29492,-0.31055 -0.10503,-0.10518 -0.21656,-0.20231 -0.32227,-0.30664 -0.10099,-0.10256 -0.19509,-0.21059 -0.29687,-0.3125 -0.10573,-0.10589 -0.21779,-0.20357 -0.32422,-0.3086 -0.0991,-0.10057 -0.1912,-0.20669 -0.29102,-0.30664 -0.10509,-0.10523 -0.21649,-0.20225 -0.32226,-0.30664 -0.0991,-0.10057 -0.1912,-0.20669 -0.29102,-0.30664 -0.11161,-0.11176 -0.22942,-0.21536 -0.3418,-0.32617 -0.0917,-0.093 -0.17722,-0.19076 -0.26953,-0.2832 -0.0988,-0.099 -0.20329,-0.19083 -0.30273,-0.28906 -0.10355,-0.10519 -0.20031,-0.2158 -0.30469,-0.32032 -0.10378,-0.10392 -0.21392,-0.19964 -0.31836,-0.30273 -0.0978,-0.0992 -0.1886,-0.20409 -0.28711,-0.30274 -0.10243,-0.10257 -0.21138,-0.19705 -0.31445,-0.29882 -0.0984,-0.0999 -0.18989,-0.20538 -0.28906,-0.30469 -0.10965,-0.1098 -0.22555,-0.21142 -0.33594,-0.32031 -0.0904,-0.0916 -0.17462,-0.18817 -0.26563,-0.2793 -0.0969,-0.097 -0.19941,-0.1869 -0.29687,-0.2832 -0.10227,-0.10387 -0.1977,-0.2132 -0.30078,-0.31641 -0.10214,-0.10228 -0.20971,-0.19735 -0.3125,-0.29883 -0.0962,-0.0976 -0.18633,-0.19986 -0.28321,-0.29687 -0.10835,-0.10849 -0.22296,-0.20882 -0.33203,-0.31641 -0.0891,-0.0903 -0.17201,-0.18557 -0.26172,-0.27539 -0.0956,-0.0957 -0.19682,-0.18429 -0.29296,-0.2793 -0.10098,-0.10255 -0.19511,-0.21059 -0.29688,-0.3125 -0.0998,-0.1 -0.20621,-0.19181 -0.30664,-0.29101 -0.0958,-0.0973 -0.18469,-0.20019 -0.28125,-0.29688 -0.0995,-0.0996 -0.20459,-0.19214 -0.30469,-0.29101 -0.0955,-0.0969 -0.18503,-0.19857 -0.28125,-0.29493 -0.0992,-0.0993 -0.2049,-0.19051 -0.30468,-0.28906 -0.0952,-0.0966 -0.18339,-0.19889 -0.2793,-0.29492 -0.0995,-0.0997 -0.20455,-0.19211 -0.30469,-0.29102 -0.0936,-0.0949 -0.18113,-0.19467 -0.27539,-0.28906 -0.0992,-0.0993 -0.20492,-0.19051 -0.30469,-0.28906 -0.0933,-0.0947 -0.17944,-0.19494 -0.27343,-0.28906 -0.0988,-0.0989 -0.20335,-0.19089 -0.30274,-0.28907 -0.093,-0.0943 -0.17982,-0.19335 -0.27344,-0.2871 -0.0975,-0.0977 -0.2007,-0.18823 -0.29882,-0.28516 -0.0936,-0.095 -0.18113,-0.19466 -0.2754,-0.28906 -0.0979,-0.098 -0.20228,-0.18785 -0.30078,-0.28516 -0.092,-0.0933 -0.17688,-0.19239 -0.26953,-0.28516 -0.0969,-0.097 -0.19941,-0.18691 -0.29687,-0.2832 -0.0923,-0.0936 -0.17853,-0.19207 -0.27149,-0.28516 -0.0962,-0.0964 -0.19813,-0.1856 -0.29492,-0.28125 -0.0923,-0.0936 -0.17851,-0.19205 -0.27148,-0.285152 -0.0976,-0.0977 -0.20066,-0.188176 -0.29883,-0.285156 -0.0898,-0.091 -0.17327,-0.186824 -0.26367,-0.277344 -0.10303,-0.10317 -0.21272,-0.198411 -0.31641,-0.300781 -0.084,-0.085 -0.1616,-0.175166 -0.24609,-0.259766 -0.0969,-0.097 -0.19942,-0.186903 -0.29688,-0.283203 -0.0891,-0.0903 -0.17202,-0.18556 -0.26172,-0.27539 -0.0897,-0.0898 -0.18519,-0.172509 -0.27539,-0.261719 -0.0952,-0.0966 -0.18338,-0.198882 -0.2793,-0.294922 -0.10079,-0.10092 -0.20718,-0.194772 -0.30859,-0.294922 -0.0836,-0.0847 -0.16193,-0.173542 -0.24609,-0.257813 -0.0956,-0.0957 -0.19683,-0.184286 -0.29297,-0.279296 -0.0878,-0.089 -0.16941,-0.182965 -0.25781,-0.271485 -0.089,-0.0892 -0.1839,-0.171195 -0.27344,-0.259765 -0.0933,-0.0947 -0.17945,-0.194943 -0.27344,-0.289063 -0.0936,-0.0937 -0.19299,-0.180397 -0.28711,-0.273437 -0.0884,-0.0897 -0.1707,-0.184258 -0.25976,-0.273438 -0.093,-0.0931 -0.19166,-0.179054 -0.28516,-0.271484 -0.0879,-0.089 -0.16937,-0.182925 -0.25781,-0.271485 -0.093,-0.0931 -0.19166,-0.179044 -0.28516,-0.271484 -0.0872,-0.0884 -0.16807,-0.181621 -0.25586,-0.269531 -0.0917,-0.0918 -0.18907,-0.176428 -0.28125,-0.267578 -0.0878,-0.089 -0.16941,-0.182965 -0.25781,-0.271485 -0.0975,-0.0977 -0.20071,-0.188216 -0.29883,-0.285156 -0.081,-0.0821 -0.15674,-0.16834 -0.23828,-0.25 -0.0858,-0.0859 -0.17741,-0.16465 -0.26367,-0.25 -0.092,-0.0933 -0.17688,-0.192386 -0.26953,-0.285156 -0.0917,-0.0918 -0.18902,-0.176398 -0.28125,-0.267578 -0.0852,-0.0863 -0.16424,-0.177802 -0.25,-0.263672 -0.0904,-0.0905 -0.18645,-0.173772 -0.27735,-0.263672 -0.0852,-0.0864 -0.16421,-0.177762 -0.25,-0.263672 -0.0897,-0.0898 -0.18519,-0.172499 -0.27539,-0.261719 -0.0859,-0.087 -0.16551,-0.179065 -0.25195,-0.265625 -0.0897,-0.0899 -0.18515,-0.172459 -0.27539,-0.261719 -0.0846,-0.0857 -0.16291,-0.176458 -0.24805,-0.261718 -0.0959,-0.0961 -0.1984,-0.183917 -0.29492,-0.279297 -0.0775,-0.0785 -0.14859,-0.162164 -0.22656,-0.240235 -0.0829,-0.083 -0.17063,-0.159747 -0.25391,-0.242187 -0.0897,-0.091 -0.17332,-0.186864 -0.26367,-0.277344 -0.0884,-0.0885 -0.18259,-0.169892 -0.27149,-0.257812 -0.0833,-0.0844 -0.16027,-0.173823 -0.24414,-0.257813 -0.089,-0.0891 -0.18392,-0.171235 -0.27343,-0.259765 -0.082,-0.0831 -0.15767,-0.171227 -0.24024,-0.253907 -0.0877,-0.0878 -0.18135,-0.168619 -0.26953,-0.255859 -0.0827,-0.0837 -0.159,-0.172559 -0.24219,-0.255859 -0.093,-0.0931 -0.19165,-0.179055 -0.28515,-0.271485 -0.0765,-0.0775 -0.14763,-0.159238 -0.22461,-0.236328 -0.0809,-0.081 -0.16675,-0.155818 -0.24805,-0.236328 -0.0878,-0.089 -0.16941,-0.182964 -0.25781,-0.271484 -0.0865,-0.0866 -0.17868,-0.165913 -0.26563,-0.251953 -0.0814,-0.0824 -0.1564,-0.169964 -0.23828,-0.251954 -0.0865,-0.0866 -0.17867,-0.165923 -0.26562,-0.251953 -0.0801,-0.0811 -0.15377,-0.167327 -0.23438,-0.248047 -0.0851,-0.0853 -0.17613,-0.163336 -0.26172,-0.248046 -0.0814,-0.0824 -0.1564,-0.169964 -0.23828,-0.251954 -0.0852,-0.0853 -0.17609,-0.163296 -0.26172,-0.248046 -0.0801,-0.0811 -0.1538,-0.167367 -0.23437,-0.248047 -0.0911,-0.0912 -0.18774,-0.175075 -0.2793,-0.265625 -0.0733,-0.0742 -0.14112,-0.152743 -0.21484,-0.226563 -0.0783,-0.0784 -0.16157,-0.150585 -0.24024,-0.228515 -0.0852,-0.0864 -0.16421,-0.177762 -0.25,-0.263672 -0.0838,-0.084 -0.17354,-0.160721 -0.25781,-0.244141 -0.0788,-0.0798 -0.15116,-0.164721 -0.23047,-0.244141 -0.0841,-0.0842 -0.17326,-0.162403 -0.25781,-0.246093 -0.0779,-0.0788 -0.1502,-0.161805 -0.22852,-0.240235 -0.0831,-0.0833 -0.17228,-0.159457 -0.25586,-0.242187 -0.0781,-0.0791 -0.14989,-0.163458 -0.22851,-0.242188 -0.0884,-0.0885 -0.1826,-0.169892 -0.27149,-0.257812 -0.072,-0.0729 -0.13851,-0.150137 -0.21093,-0.222657 -0.0763,-0.0764 -0.15769,-0.146656 -0.23438,-0.222656 -0.0833,-0.0844 -0.1603,-0.173862 -0.24414,-0.257812 -0.0881,-0.0882 -0.18094,-0.170183 -0.26953,-0.257813 -0.0704,-0.0712 -0.13625,-0.145917 -0.20703,-0.216797 -0.0753,-0.0754 -0.15477,-0.145683 -0.23047,-0.220703 -0.0823,-0.0834 -0.15934,-0.170946 -0.24219,-0.253906 -0.0868,-0.0869 -0.1784,-0.167606 -0.26562,-0.253906 -0.0704,-0.0712 -0.13625,-0.145927 -0.20703,-0.216797 -0.0747,-0.0748 -0.15348,-0.14438 -0.22852,-0.21875 -0.0817,-0.0827 -0.15803,-0.169643 -0.24023,-0.251953 -0.0865,-0.0866 -0.17868,-0.165913 -0.26563,-0.251953 -0.0688,-0.0695 -0.13201,-0.143641 -0.20117,-0.212891 -0.0737,-0.0738 -0.15249,-0.141434 -0.22656,-0.214844 -0.0807,-0.0817 -0.15511,-0.16866 -0.23633,-0.25 -0.0783,-0.0784 -0.16157,-0.150585 -0.24024,-0.228515 -0.0752,-0.0761 -0.14502,-0.156642 -0.2207,-0.232422 -0.0783,-0.0784 -0.16156,-0.150586 -0.24023,-0.228516 -0.0746,-0.0755 -0.14372,-0.155349 -0.21875,-0.230469 -0.0776,-0.0777 -0.16027,-0.149272 -0.23828,-0.226562 -0.0746,-0.0755 -0.14372,-0.155339 -0.21875,-0.230469 -0.0783,-0.0784 -0.16154,-0.150556 -0.24024,-0.228516 -0.0727,-0.0735 -0.13979,-0.151409 -0.21289,-0.224609 -0.0841,-0.0842 -0.17326,-0.162404 -0.25781,-0.246094 -0.0665,-0.0672 -0.12844,-0.138118 -0.19531,-0.205078 -0.0718,-0.0719 -0.14862,-0.137504 -0.22071,-0.208984 -0.0775,-0.0785 -0.14856,-0.162124 -0.22656,-0.240235 -0.077,-0.0771 -0.15902,-0.148009 -0.23633,-0.224609 -0.072,-0.0728 -0.13852,-0.150136 -0.21094,-0.222656 -0.076,-0.0761 -0.15607,-0.146996 -0.23242,-0.222656 -0.0717,-0.0725 -0.13881,-0.148484 -0.21093,-0.220703 -0.0825,-0.0826 -0.171,-0.158145 -0.25391,-0.240235 -0.0649,-0.0656 -0.1242,-0.135842 -0.18945,-0.201172 -0.0695,-0.0696 -0.14311,-0.133915 -0.21289,-0.203125 -0.0765,-0.0774 -0.14762,-0.159238 -0.22461,-0.236328 -0.0744,-0.0745 -0.1538,-0.142747 -0.22852,-0.216797 -0.0714,-0.0722 -0.13721,-0.148833 -0.20898,-0.220703 -0.0744,-0.0745 -0.15377,-0.142707 -0.22852,-0.216797 -0.0701,-0.0709 -0.13462,-0.146237 -0.20508,-0.216797 -0.0734,-0.0735 -0.15089,-0.141763 -0.22461,-0.214843 -0.0704,-0.0712 -0.13625,-0.145917 -0.20703,-0.216797 -0.0731,-0.0732 -0.15121,-0.140131 -0.22461,-0.212891 -0.0701,-0.0709 -0.13462,-0.146237 -0.20508,-0.216797 -0.0731,-0.0732 -0.15116,-0.14009 -0.2246,-0.21289 -0.0688,-0.0695 -0.13202,-0.143641 -0.20118,-0.212891 -0.0721,-0.0722 -0.1483,-0.139148 -0.2207,-0.210937 -0.0691,-0.0699 -0.13364,-0.143321 -0.20312,-0.212891 -0.0718,-0.0719 -0.14863,-0.137514 -0.22071,-0.208985 -0.0688,-0.0696 -0.13201,-0.14364 -0.20117,-0.21289 -0.0714,-0.0715 -0.147,-0.137835 -0.21875,-0.208984 -0.0685,-0.0692 -0.13234,-0.142028 -0.20117,-0.210938 -0.0715,-0.0716 -0.14697,-0.137804 -0.21875,-0.208984 -0.0672,-0.0679 -0.12975,-0.139422 -0.19727,-0.207032 -0.0705,-0.0706 -0.14602,-0.134898 -0.21679,-0.205078 -0.0675,-0.0682 -0.12942,-0.141034 -0.19727,-0.208984 -0.0701,-0.0702 -0.1444,-0.135228 -0.21484,-0.205078 -0.0672,-0.0679 -0.12975,-0.139421 -0.19727,-0.207032 -0.0708,-0.0709 -0.14567,-0.136501 -0.2168,-0.207031 -0.0653,-0.066 -0.1258,-0.135492 -0.1914,-0.201172 -0.0701,-0.0702 -0.14445,-0.135258 -0.21485,-0.205078 -0.0659,-0.0666 -0.12714,-0.136815 -0.19336,-0.203125 -0.0695,-0.0696 -0.14308,-0.133895 -0.21289,-0.203125 -0.0652,-0.0659 -0.12583,-0.135522 -0.1914,-0.201172 -0.0695,-0.0696 -0.14308,-0.133885 -0.21289,-0.203125 -0.064,-0.0646 -0.12321,-0.132895 -0.1875,-0.197265 -0.0688,-0.0689 -0.14186,-0.132642 -0.21094,-0.201172 -0.0646,-0.0653 -0.12453,-0.134209 -0.18945,-0.199219 -0.0682,-0.0683 -0.1405,-0.131279 -0.20899,-0.199219 -0.0639,-0.0646 -0.12324,-0.132915 -0.1875,-0.197265 -0.0675,-0.0676 -0.1392,-0.129966 -0.20703,-0.197266 -0.0639,-0.0646 -0.12324,-0.132916 -0.1875,-0.197266 -0.0676,-0.0677 -0.1392,-0.129965 -0.20703,-0.197265 -0.0627,-0.0633 -0.1206,-0.130289 -0.18359,-0.193359 -0.0668,-0.0669 -0.13796,-0.128723 -0.20508,-0.195313 -0.0633,-0.0639 -0.12194,-0.131622 -0.18555,-0.195313 -0.0663,-0.0663 -0.1366,-0.127359 -0.20312,-0.193359 -0.0627,-0.0633 -0.12064,-0.130319 -0.1836,-0.193359 -0.0725,-0.0725 -0.14987,-0.138788 -0.22265,-0.210938 -0.0556,-0.056 -0.10632,-0.116015 -0.16211,-0.171875 -0.0594,-0.0594 -0.12205,-0.114648 -0.18164,-0.173828 -0.0678,-0.0685 -0.13104,-0.140724 -0.19922,-0.208984 -0.0643,-0.0643 -0.13275,-0.12347 -0.19727,-0.1875 -0.062,-0.0626 -0.11934,-0.129017 -0.18164,-0.191407 -0.0643,-0.0644 -0.13274,-0.123469 -0.19727,-0.1875 -0.0614,-0.062 -0.11802,-0.127723 -0.17968,-0.189453 -0.0636,-0.0637 -0.13145,-0.122157 -0.19532,-0.185547 -0.0614,-0.062 -0.11802,-0.127723 -0.17968,-0.189453 -0.0636,-0.0637 -0.13142,-0.122126 -0.19532,-0.185547 -0.0601,-0.0607 -0.11543,-0.125116 -0.17578,-0.185546 -0.0633,-0.0634 -0.12984,-0.122497 -0.19336,-0.185547 -0.0598,-0.0603 -0.11574,-0.123474 -0.17578,-0.183594 -0.0629,-0.063 -0.13018,-0.120884 -0.19336,-0.183594 -0.0594,-0.06 -0.11412,-0.123813 -0.17382,-0.183593 -0.0623,-0.0624 -0.12887,-0.119541 -0.19141,-0.181641 -0.0594,-0.06 -0.11413,-0.123814 -0.17383,-0.183594 -0.062,-0.0621 -0.12722,-0.119851 -0.18945,-0.181641 -0.0584,-0.059 -0.11317,-0.120897 -0.17188,-0.179687 -0.061,-0.0611 -0.12627,-0.116934 -0.1875,-0.177734 -0.0588,-0.0593 -0.11282,-0.122521 -0.17187,-0.181641 -0.0607,-0.0608 -0.12466,-0.117264 -0.18555,-0.177734 -0.0584,-0.059 -0.11316,-0.120888 -0.17187,-0.179688 -0.0669,-0.067 -0.13793,-0.128692 -0.20508,-0.195312 -0.0513,-0.0518 -0.0989,-0.106594 -0.15039,-0.158204 -0.0541,-0.0542 -0.11169,-0.104203 -0.16602,-0.158203 -0.0633,-0.0639 -0.12194,-0.131612 -0.18555,-0.195312 -0.06,-0.0601 -0.12333,-0.115931 -0.18359,-0.175781 -0.0565,-0.057 -0.10925,-0.116988 -0.16601,-0.173828 -0.06,-0.0601 -0.12333,-0.115932 -0.1836,-0.175782 -0.0552,-0.0557 -0.10664,-0.114372 -0.16211,-0.169922 -0.0587,-0.0588 -0.12076,-0.113355 -0.17969,-0.171875 -0.0565,-0.057 -0.10926,-0.116998 -0.16601,-0.173828 -0.0587,-0.0588 -0.12074,-0.113315 -0.17969,-0.171875 -0.0552,-0.0557 -0.10666,-0.114392 -0.16211,-0.169922 -0.0584,-0.0585 -0.12105,-0.111682 -0.17969,-0.169922 -0.0549,-0.0554 -0.10502,-0.114711 -0.16015,-0.169921 -0.0574,-0.0575 -0.11814,-0.110709 -0.17578,-0.167969 -0.0546,-0.0551 -0.10536,-0.113099 -0.16016,-0.167969 -0.0636,-0.0637 -0.13145,-0.122157 -0.19531,-0.185547 -0.0481,-0.0485 -0.0924,-0.100097 -0.14063,-0.148437 -0.0574,-0.0575 -0.11817,-0.110739 -0.17578,-0.167969 -0.0533,-0.0538 -0.10276,-0.110492 -0.15625,-0.164062 -0.0509,-0.051 -0.1052,-0.09771 -0.15625,-0.148438 -0.0588,-0.0594 -0.11279,-0.122491 -0.17187,-0.181641 -0.0561,-0.0562 -0.11561,-0.108142 -0.17188,-0.164062 -0.0533,-0.0537 -0.10276,-0.110493 -0.15625,-0.164063 -0.0555,-0.0556 -0.11425,-0.106789 -0.16992,-0.162109 -0.0526,-0.0531 -0.10146,-0.109189 -0.1543,-0.162109 -0.0548,-0.0549 -0.11297,-0.105517 -0.16797,-0.160157 -0.0526,-0.0531 -0.10145,-0.109199 -0.15429,-0.162109 -0.0555,-0.0556 -0.11425,-0.106789 -0.16992,-0.162109 -0.0513,-0.0517 -0.0989,-0.106613 -0.15039,-0.158203 -0.0542,-0.0542 -0.11167,-0.104184 -0.16602,-0.158204 -0.0513,-0.0518 -0.0988,-0.106593 -0.15039,-0.158203 -0.0535,-0.0536 -0.11038,-0.1029 -0.16406,-0.15625 -0.0513,-0.0518 -0.0988,-0.106593 -0.15039,-0.158203 -0.0528,-0.0529 -0.10909,-0.101597 -0.16211,-0.154297 -0.0513,-0.0518 -0.0988,-0.106593 -0.15039,-0.158203 -0.0597,-0.0598 -0.12365,-0.114298 -0.1836,-0.173828 -0.0436,-0.0439 -0.0832,-0.091 -0.12695,-0.134766 -0.0466,-0.0467 -0.0958,-0.0902 -0.14258,-0.136718 -0.0559,-0.0564 -0.10796,-0.115695 -0.16406,-0.171875 -0.0522,-0.0523 -0.10778,-0.100264 -0.16016,-0.152344 -0.0494,-0.0498 -0.0949,-0.102694 -0.14453,-0.152344 -0.0584,-0.0585 -0.12106,-0.111682 -0.17969,-0.169922 -0.0423,-0.0426 -0.0806,-0.0884 -0.12304,-0.130859 -0.0453,-0.0454 -0.0932,-0.0876 -0.13867,-0.132813 -0.0546,-0.0551 -0.10537,-0.113098 -0.16016,-0.167968 -0.0502,-0.0503 -0.10391,-0.0964 -0.1543,-0.146485 -0.0488,-0.0491 -0.0936,-0.10139 -0.14258,-0.15039 -0.0502,-0.0503 -0.10389,-0.0964 -0.15429,-0.146485 -0.0481,-0.0485 -0.0923,-0.100097 -0.14063,-0.148437 -0.0496,-0.0496 -0.1026,-0.0951 -0.15234,-0.144532 -0.0481,-0.0485 -0.0923,-0.100087 -0.14063,-0.148437 -0.0496,-0.0497 -0.10258,-0.095 -0.15234,-0.144531 -0.0468,-0.0472 -0.0898,-0.0975 -0.13672,-0.144532 -0.0493,-0.0493 -0.10099,-0.0954 -0.15039,-0.144531 -0.0465,-0.0469 -0.0901,-0.0959 -0.13672,-0.142578 -0.0486,-0.0487 -0.0997,-0.0941 -0.14844,-0.142578 -0.0465,-0.0468 -0.0901,-0.0959 -0.13672,-0.142578 -0.0483,-0.0483 -0.1,-0.09251 -0.14843,-0.140625 -0.0462,-0.0465 -0.0884,-0.0962 -0.13477,-0.142578 -0.048,-0.048 -0.0984,-0.0928 -0.14648,-0.140625 -0.0452,-0.0455 -0.0875,-0.09329 -0.13282,-0.138672 -0.0473,-0.0474 -0.0971,-0.0915 -0.14453,-0.138672 -0.0452,-0.0455 -0.0875,-0.0933 -0.13281,-0.138672 -0.047,-0.047 -0.0974,-0.0899 -0.14453,-0.136719 -0.0449,-0.0452 -0.0858,-0.0936 -0.13086,-0.138672 -0.0467,-0.0467 -0.0958,-0.0902 -0.14258,-0.136718 -0.0439,-0.0442 -0.0849,-0.0907 -0.1289,-0.134766 -0.0463,-0.0464 -0.0961,-0.08851 -0.14258,-0.134766 -0.0436,-0.0439 -0.0832,-0.09099 -0.12695,-0.134765 -0.046,-0.046 -0.0945,-0.08891 -0.14063,-0.134766 -0.0432,-0.0436 -0.0836,-0.0894 -0.12695,-0.132812 -0.0453,-0.0454 -0.0932,-0.08759 -0.13868,-0.132813 -0.0432,-0.0435 -0.0836,-0.0894 -0.12695,-0.132812 -0.0454,-0.0454 -0.0932,-0.0875 -0.13867,-0.132813 -0.042,-0.0423 -0.081,-0.0868 -0.12305,-0.128906 -0.0447,-0.0447 -0.0919,-0.0863 -0.13672,-0.130859 -0.042,-0.0423 -0.081,-0.08671 -0.12304,-0.128907 -0.044,-0.0441 -0.0906,-0.085 -0.13477,-0.128906 -0.0419,-0.0422 -0.081,-0.0868 -0.12304,-0.128906 -0.0434,-0.0434 -0.0893,-0.0837 -0.13282,-0.126953 -0.0419,-0.0422 -0.081,-0.0868 -0.12304,-0.128906 -0.0434,-0.0435 -0.0893,-0.0836 -0.13282,-0.126954 -0.0406,-0.0409 -0.0784,-0.0842 -0.11914,-0.125 -0.0427,-0.0428 -0.088,-0.0823 -0.13086,-0.125 -0.0406,-0.0409 -0.0784,-0.0842 -0.11914,-0.125 -0.0421,-0.0421 -0.0867,-0.081 -0.1289,-0.123046 -0.0406,-0.0409 -0.0784,-0.0842 -0.11914,-0.125 -0.0421,-0.0421 -0.0867,-0.08101 -0.12891,-0.123047 -0.0394,-0.0396 -0.0758,-0.08159 -0.11523,-0.121094 -0.0414,-0.0415 -0.0854,-0.0797 -0.12696,-0.121094 -0.0394,-0.0396 -0.0757,-0.0815 -0.11523,-0.121094 -0.0414,-0.0415 -0.0854,-0.07979 -0.12696,-0.121093 -0.0387,-0.039 -0.0745,-0.0803 -0.11328,-0.119141 -0.0408,-0.0408 -0.0841,-0.0784 -0.125,-0.119141 -0.0387,-0.039 -0.0745,-0.0803 -0.11328,-0.11914 -0.0401,-0.0402 -0.0828,-0.0771 -0.12305,-0.117188 -0.038,-0.0383 -0.0732,-0.07901 -0.11132,-0.117187 -0.0401,-0.0402 -0.0828,-0.0771 -0.12305,-0.117188 -0.0374,-0.0377 -0.0718,-0.07769 -0.10937,-0.115234 -0.0394,-0.0395 -0.0815,-0.0758 -0.1211,-0.115235 -0.0374,-0.0377 -0.0719,-0.07769 -0.10937,-0.115234 -0.0388,-0.0389 -0.0802,-0.0745 -0.11914,-0.113281 -0.0374,-0.0377 -0.0719,-0.0777 -0.10938,-0.115235 -0.0385,-0.0386 -0.0786,-0.0748 -0.11719,-0.113281 -0.0364,-0.0367 -0.0709,-0.0748 -0.10742,-0.111328 -0.0382,-0.0382 -0.0789,-0.0732 -0.11719,-0.111328 -0.0361,-0.0363 -0.0693,-0.0751 -0.10547,-0.111328 -0.0378,-0.0379 -0.0773,-0.07351 -0.11523,-0.111328 -0.0358,-0.036 -0.0696,-0.0735 -0.10547,-0.109375 -0.0372,-0.0373 -0.076,-0.0722 -0.11328,-0.109375 -0.0351,-0.0353 -0.0683,-0.07219 -0.10352,-0.107422 -0.0365,-0.0366 -0.0747,-0.0709 -0.11132,-0.107422 -0.0351,-0.0353 -0.0683,-0.0721 -0.10352,-0.107422 -0.0362,-0.0363 -0.075,-0.0693 -0.11133,-0.105469 -0.0348,-0.035 -0.0667,-0.0725 -0.10156,-0.107422 -0.0359,-0.0359 -0.0734,-0.0696 -0.10937,-0.105468 -0.0345,-0.0347 -0.067,-0.0708 -0.10157,-0.105469 -0.0356,-0.0356 -0.0737,-0.06801 -0.10937,-0.103516 -0.0335,-0.0337 -0.0642,-0.0699 -0.0977,-0.103515 -0.0349,-0.0349 -0.0724,-0.0667 -0.10742,-0.101563 -0.0335,-0.0337 -0.0641,-0.0699 -0.0977,-0.103515 -0.0346,-0.0346 -0.0708,-0.067 -0.10546,-0.101563 -0.0332,-0.0334 -0.0645,-0.0683 -0.0977,-0.101562 -0.0408,-0.0408 -0.0841,-0.0784 -0.125,-0.119141 -0.0261,-0.0262 -0.0501,-0.05398 -0.0762,-0.08008 -0.0274,-0.0274 -0.0565,-0.05268 -0.084,-0.08008 -0.0387,-0.039 -0.0745,-0.0803 -0.11328,-0.119141 -0.0336,-0.0337 -0.0698,-0.06406 -0.10351,-0.09766 -0.0316,-0.0318 -0.0601,-0.06596 -0.0918,-0.09766 -0.0395,-0.0395 -0.0815,-0.07579 -0.12109,-0.115235 -0.0247,-0.0249 -0.0475,-0.05127 -0.0723,-0.07617 -0.0261,-0.0261 -0.0539,-0.05007 -0.0801,-0.07617 -0.0374,-0.0377 -0.0719,-0.07769 -0.10937,-0.115234 -0.032,-0.032 -0.0656,-0.06185 -0.0977,-0.09375 -0.0306,-0.0308 -0.0592,-0.06305 -0.0898,-0.09375 -0.0316,-0.0317 -0.066,-0.0602 -0.0977,-0.0918 -0.0303,-0.0304 -0.0575,-0.06345 -0.0879,-0.09375 -0.0382,-0.0382 -0.0789,-0.0732 -0.11719,-0.111328 -0.0228,-0.0229 -0.0436,-0.04741 -0.0664,-0.07031 -0.0248,-0.0248 -0.0513,-0.04747 -0.0762,-0.07227 -0.0355,-0.0357 -0.068,-0.07381 -0.10351,-0.109375 -0.0307,-0.0307 -0.063,-0.05914 -0.0937,-0.08984 -0.0286,-0.0288 -0.0553,-0.05909 -0.084,-0.08789 -0.03,-0.0301 -0.0617,-0.05789 -0.0918,-0.08789 -0.0286,-0.0288 -0.0553,-0.05909 -0.084,-0.08789 -0.0294,-0.0294 -0.0604,-0.05664 -0.0898,-0.08594 -0.028,-0.0281 -0.054,-0.05784 -0.082,-0.08594 -0.0356,-0.0356 -0.0737,-0.068 -0.10938,-0.103515 -0.0215,-0.0216 -0.041,-0.04481 -0.0625,-0.06641 -0.0294,-0.0294 -0.0604,-0.05664 -0.0898,-0.08594 -0.0267,-0.0268 -0.0514,-0.05533 -0.0781,-0.08203 -0.0219,-0.0219 -0.0445,-0.04255 -0.0664,-0.06445 -0.0332,-0.0334 -0.0644,-0.0683 -0.0977,-0.101563 -0.0343,-0.0343 -0.0711,-0.06541 -0.10547,-0.09961 -0.0202,-0.0203 -0.0384,-0.0422 -0.0586,-0.0625 -0.0212,-0.0212 -0.0431,-0.0413 -0.0644,-0.0625 -0.0325,-0.0327 -0.0631,-0.06691 -0.0957,-0.09961 -0.0274,-0.0275 -0.0565,-0.05268 -0.084,-0.08008 -0.0254,-0.0255 -0.0488,-0.05262 -0.0742,-0.07813 -0.0268,-0.0268 -0.0552,-0.05143 -0.082,-0.07813 -0.0247,-0.0249 -0.0475,-0.05127 -0.0723,-0.07617 -0.0326,-0.0327 -0.0669,-0.0631 -0.0996,-0.0957 -0.0186,-0.0186 -0.0361,-0.03804 -0.0547,-0.05664 -0.0199,-0.0199 -0.0406,-0.03869 -0.0606,-0.05859 -0.0306,-0.0307 -0.0591,-0.06315 -0.0898,-0.09375 -0.0255,-0.0255 -0.0526,-0.04882 -0.0781,-0.07422 -0.0235,-0.0236 -0.0449,-0.04866 -0.0684,-0.07227 -0.0251,-0.0251 -0.051,-0.04912 -0.0762,-0.07422 -0.0238,-0.0239 -0.0465,-0.04837 -0.0703,-0.07227 -0.0245,-0.0245 -0.0497,-0.04776 -0.0742,-0.07227 -0.0231,-0.0232 -0.0452,-0.04711 -0.0684,-0.07031 -0.0241,-0.0242 -0.05,-0.04621 -0.0742,-0.07031 -0.0228,-0.0229 -0.0436,-0.04741 -0.0664,-0.07031 -0.0235,-0.0235 -0.0487,-0.04486 -0.0723,-0.06836 -0.0228,-0.0229 -0.0436,-0.04741 -0.0664,-0.07031 -0.0232,-0.0232 -0.0471,-0.04516 -0.0703,-0.06836 -0.0218,-0.0219 -0.0426,-0.04451 -0.0644,-0.06641 -0.0228,-0.0229 -0.0474,-0.04361 -0.0703,-0.06641 -0.0215,-0.0216 -0.041,-0.04481 -0.0625,-0.06641 -0.0225,-0.0225 -0.0458,-0.04391 -0.0684,-0.06641 -0.0212,-0.0213 -0.0413,-0.04315 -0.0625,-0.06445 -0.0219,-0.0219 -0.0445,-0.04265 -0.0664,-0.06445 -0.0212,-0.0213 -0.0413,-0.04315 -0.0625,-0.06445 -0.0215,-0.0216 -0.0448,-0.041 -0.0664,-0.0625 -0.0202,-0.0203 -0.0384,-0.0422 -0.0586,-0.0625 -0.0209,-0.0209 -0.0436,-0.03975 -0.0645,-0.06055 -0.0202,-0.0203 -0.0384,-0.0423 -0.0586,-0.0625 -0.0206,-0.0206 -0.0419,-0.03995 -0.0625,-0.06055 -0.0199,-0.0199 -0.0387,-0.04065 -0.0586,-0.06055 -0.0202,-0.0203 -0.0422,-0.03839 -0.0625,-0.05859 -0.0189,-0.019 -0.0357,-0.03959 -0.0547,-0.05859 -0.0202,-0.0203 -0.0423,-0.03839 -0.0625,-0.05859 -0.0189,-0.019 -0.0358,-0.03959 -0.0547,-0.05859 -0.0261,-0.0261 -0.0539,-0.05007 -0.0801,-0.07617 -0.0114,-0.0114 -0.0218,-0.02366 -0.0332,-0.03516 -0.0127,-0.0127 -0.0263,-0.02441 -0.0391,-0.03711 -0.0241,-0.0242 -0.0462,-0.05002 -0.0703,-0.07422 -0.0186,-0.0186 -0.038,-0.03609 -0.0566,-0.05469 -0.0179,-0.018 -0.0348,-0.03669 -0.0527,-0.05469 -0.018,-0.018 -0.0367,-0.03483 -0.0547,-0.05273 -0.0173,-0.0173 -0.0335,-0.03543 -0.0508,-0.05273 -0.018,-0.018 -0.0367,-0.03484 -0.0547,-0.05273 -0.0166,-0.0167 -0.0322,-0.03408 -0.0488,-0.05078 -0.0173,-0.0173 -0.0354,-0.03348 -0.0527,-0.05078 -0.016,-0.016 -0.0309,-0.03283 -0.0469,-0.04883 -0.0235,-0.0235 -0.0487,-0.04486 -0.0723,-0.06836 -0.009,-0.009 -0.0179,-0.0198 -0.0273,-0.0293 -0.0166,-0.0167 -0.0341,-0.03223 -0.0508,-0.04883 -0.0153,-0.0154 -0.0296,-0.03148 -0.0449,-0.04687 -0.009,-0.009 -0.0198,-0.01794 -0.0293,-0.02734 -0.0215,-0.0216 -0.041,-0.04481 -0.0625,-0.06641 -0.016,-0.016 -0.0328,-0.03088 -0.0488,-0.04687 -0.0147,-0.0147 -0.0283,-0.03022 -0.043,-0.04492 -0.0153,-0.0154 -0.0315,-0.02962 -0.0469,-0.04492 -0.014,-0.0141 -0.027,-0.02887 -0.041,-0.04297 -0.0147,-0.0147 -0.0302,-0.02827 -0.0449,-0.04297 -0.014,-0.0141 -0.027,-0.02887 -0.041,-0.04297 -0.014,-0.014 -0.0289,-0.02701 -0.043,-0.04102 -0.014,-0.0141 -0.027,-0.02887 -0.041,-0.04297 -0.014,-0.0141 -0.0289,-0.02702 -0.043,-0.04102 -0.0127,-0.0128 -0.0244,-0.02626 -0.0371,-0.03906 -0.0134,-0.0134 -0.0276,-0.02566 -0.041,-0.03906 -0.0127,-0.0127 -0.0244,-0.02626 -0.0371,-0.03906 -0.0127,-0.0127 -0.0263,-0.02441 -0.0391,-0.03711 -0.0127,-0.0127 -0.0244,-0.02626 -0.0371,-0.03906 -0.0245,-0.0245 -0.0497,-0.04777 -0.0742,-0.07227 -0.0238,-0.0239 -0.0465,-0.04837 -0.0703,-0.07227 -0.0117,-0.0118 -0.0233,-0.02336 -0.0351,-0.03516 l -0.0332,-0.0332 c -0.0114,-0.0114 -0.0237,-0.0218 -0.0352,-0.0332 -0.0108,-0.0108 -0.0205,-0.0224 -0.0312,-0.0332 -0.0108,-0.0108 -0.0224,-0.02055 -0.0332,-0.03125 -0.0101,-0.0101 -0.0192,-0.02115 -0.0293,-0.03125 -0.0101,-0.0101 -0.0211,-0.0192 -0.0312,-0.0293 -0.0101,-0.0101 -0.0192,-0.02115 -0.0293,-0.03125 -0.0101,-0.0101 -0.0212,-0.0192 -0.0312,-0.0293 -0.009,-0.009 -0.0178,-0.0198 -0.0273,-0.0293 -0.009,-0.009 -0.0198,-0.01794 -0.0293,-0.02734 -0.009,-0.009 -0.0178,-0.0198 -0.0273,-0.0293 l -0.0273,-0.02734 -0.0254,-0.02539 c -0.009,-0.009 -0.0184,-0.01659 -0.0273,-0.02539 -0.008,-0.008 -0.0153,-0.01719 -0.0234,-0.02539 l -0.0254,-0.02539 -0.0234,-0.02344 -0.0234,-0.02344 -0.0234,-0.02344 c -0.008,-0.008 -0.0159,-0.01398 -0.0234,-0.02148 -0.007,-0.007 -0.0127,-0.01458 -0.0195,-0.02148 -0.007,-0.007 -0.0146,-0.01273 -0.0215,-0.01953 -0.007,-0.007 -0.0127,-0.01458 -0.0195,-0.02148 -0.013,-0.0131 -0.026,-0.02596 -0.0391,-0.03906 -0.006,-0.006 -0.0134,-0.01138 -0.0195,-0.01758 -0.006,-0.006 -0.0101,-0.01198 -0.0156,-0.01758 -0.0114,-0.0114 -0.0237,-0.0218 -0.0351,-0.0332 -0.0101,-0.0101 -0.0192,-0.02115 -0.0293,-0.03125 -0.005,-0.005 -0.0108,-0.009 -0.0156,-0.01367 -0.005,-0.005 -0.009,-0.01082 -0.0137,-0.01563 -0.009,-0.009 -0.0185,-0.01659 -0.0273,-0.02539 l -0.0117,-0.01172 -0.0117,-0.01172 c -0.007,-0.007 -0.0127,-0.01458 -0.0195,-0.02148 l -0.01,-0.0098 c -0.003,-0.003 -0.006,-0.0068 -0.01,-0.0098 l -0.01,-0.0098 -0.008,-0.0078 -0.006,-0.0059 h -0.002 l -0.002,-0.002 c -9.9e-4,-9.9e-4 -9.3e-4,-0.0029 -0.002,-0.0039 l -0.008,-0.0078 -0.006,-0.0059 -0.004,-0.0039 -0.004,-0.0039 c -0.002,-0.002 -0.006,-0.0039 -0.008,-0.0059 l -0.002,-0.002 -0.002,-0.002 c -0.48995,-0.49061 -0.99741,-0.95943 -1.50195,-1.43164 -0.2297,-0.21488 -0.45095,-0.441314 -0.6836,-0.652344 -0.003,-0.003 -0.006,-0.0068 -0.01,-0.0098 l -0.006,-0.0059 -0.004,-0.0039 c -0.74739,-0.67766 -1.51045,-1.333193 -2.28711,-1.970703 l -0.008,-0.0078 c -0.001,-0.001 -0.002,-0.0029 -0.004,-0.0039 -0.77892,-0.63908 -1.57223,-1.257449 -2.3789,-1.855469 -0.001,-10e-4 -0.002,-0.0029 -0.004,-0.0039 -0.80673,-0.59794 -1.62813,-1.174279 -2.46094,-1.730469 -10e-4,-0.001 -0.002,-0.0029 -0.004,-0.0039 -0.83287,-0.55613 -1.67982,-1.089836 -2.53711,-1.603516 -0.74548,-0.44668 -1.50287,-0.871056 -2.26563,-1.285156 -0.12396,-0.0673 -0.24474,-0.140611 -0.36914,-0.207031 C 148.0766,20.384174 138.16921,17.855469 128,17.855469 Z"
         id="path4162"
         transform="translate(66.756749,107.2577)" />
      <path
         inkscape:connector-curvature="0"
         style="opacity:1;fill:url(#linearGradient4170);fill-opacity:1;stroke:none;stroke-width:0.5;stroke-linecap:square;stroke-linejoin:round;stroke-miterlimit:4;stroke-dasharray:none;stroke-dashoffset:0;stroke-opacity:1"
         d="M 128,17.857422 A 61.392974,61.475423 0 0 0 66.619141,79 h -0.0098 v 0.279297 a 61.392974,61.475423 0 0 0 -0.002,0.05469 61.392974,61.475423 0 0 0 0.002,0.03906 v 1.841797 h -0.002 v 94.355466 h 0.02148 a 61.392974,61.475423 0 0 0 -0.02148,1.09766 A 61.392974,61.475423 0 0 0 128,238.14258 61.392974,61.475423 0 0 0 189.39258,176.66797 61.392974,61.475423 0 0 0 165.41602,128.02344 61.392974,61.475423 0 0 0 189.39258,79.333984 61.392974,61.475423 0 0 0 128,17.857422 Z"
         transform="translate(66.756749,107.2577)"
         id="path4164" />
      <path
         d="m 214.0766,186.9142 c 0,10.09104 -8.17911,18.27139 -18.27015,18.27139 -10.08981,0 -18.27016,-8.18035 -18.27016,-18.27139 0,-10.0898 8.18035,-18.27015 18.27016,-18.27015 10.09104,0 18.27015,8.18035 18.27015,18.27015 z m 0,96.87475 c 0,10.09018 -8.17911,18.27016 -18.27015,18.27016 -10.08981,0 -18.27016,-8.17998 -18.27016,-18.27016 0,-10.09029 8.18035,-18.27064 18.27016,-18.27064 10.09104,0 18.27015,8.18035 18.27015,18.27064 z M 158.53489,186.9142 c 0,10.29217 4.17149,19.61099 10.91665,26.3549 19.82826,19.82826 19.82826,24.3362 0,44.16445 -6.74516,6.74517 -10.91665,16.06275 -10.91665,26.3554 0,20.58446 16.68722,37.2712 37.27156,37.2712 20.58433,0 37.27156,-16.68674 37.27156,-37.2712 0,-10.29265 -4.1715,-19.61023 -10.91666,-26.3554 -19.82826,-19.82825 -19.82826,-24.33619 0,-44.16445 6.74516,-6.74391 10.91666,-16.06273 10.91666,-26.3549 0,-20.58434 -16.68723,-37.27155 -37.27156,-37.27155 -20.58434,0 -37.27156,16.68721 -37.27156,37.27155"
         style="fill:#ffffff;fill-opacity:1;fill-rule:nonzero;stroke:none"
         id="path4166"
         inkscape:connector-curvature="0"
         sodipodi:nodetypes="ssssssssssccssssscssc" />
    </g>
  </g>
</svg>
