<?xml version="1.0" standalone="no"?>
<!DOCTYPE svg PUBLIC "-//W3C//DTD SVG 20010904//EN"
 "http://www.w3.org/TR/2001/REC-SVG-20010904/DTD/svg10.dtd">
<svg version="1.0" xmlns="http://www.w3.org/2000/svg"
 width="512.000000pt" height="512.000000pt" viewBox="0 0 512.000000 512.000000"
 preserveAspectRatio="xMidYMid meet">
<metadata>
Created by potrace 1.11, written by Peter Selinger 2001-2013
</metadata>
<g transform="translate(0.000000,512.000000) scale(0.100000,-0.100000)"
fill="#000000" stroke="none">
<path d="M90 5098 c-33 -17 -51 -35 -67 -68 l-23 -44 0 -2426 0 -2426 22 -44
c17 -33 35 -51 68 -68 l44 -22 2442 2 2441 3 35 27 c74 57 68 -180 68 2525 l0
2429 -22 44 c-17 33 -35 51 -68 68 l-44 22 -2426 0 -2426 0 -44 -22z m2646
-349 c359 -50 697 -279 885 -601 185 -317 214 -716 78 -1065 -67 -172 -208
-372 -333 -473 -30 -25 -54 -48 -53 -51 1 -3 27 -27 57 -54 364 -319 505 -838
354 -1302 -59 -183 -171 -359 -316 -498 -170 -165 -369 -270 -608 -321 -118
-25 -362 -25 -480 0 -239 51 -438 156 -608 321 -188 181 -305 396 -359 663
-17 80 -18 175 -18 1197 l0 1110 23 105 c31 140 90 286 160 400 69 111 208
262 317 343 141 105 337 190 511 221 96 17 285 20 390 5z"/>
</g>
</svg>
